<svg width="14" height="14" viewBox="0 0 14 14" fill="none" xmlns="http://www.w3.org/2000/svg">
<path d="M13.5673 1.14446H12.0175V0.825302C12.0175 0.606418 11.9268 0.3965 11.7652 0.241725C11.6036 0.0869512 11.3845 0 11.156 0C10.9275 0 10.7084 0.0869512 10.5468 0.241725C10.3853 0.3965 10.2945 0.606418 10.2945 0.825302V1.14446H3.79119V0.825302C3.79119 0.606418 3.70043 0.3965 3.53886 0.241725C3.3773 0.0869512 3.15817 0 2.92969 0C2.7012 0 2.48208 0.0869512 2.32051 0.241725C2.15895 0.3965 2.06818 0.606418 2.06818 0.825302V1.14446H0.518443C0.48676 1.14445 0.455385 1.15041 0.42611 1.16202C0.396836 1.17362 0.370236 1.19065 0.347833 1.21211C0.32543 1.23357 0.307663 1.25905 0.295547 1.28709C0.283431 1.31514 0.277204 1.3452 0.277222 1.37555V13.7C0.277222 13.7613 0.302636 13.8201 0.347874 13.8634C0.393112 13.9068 0.454467 13.9311 0.518443 13.9311H11.5571C11.6211 13.9311 11.6824 13.9067 11.7276 13.8634L13.7379 11.9377C13.7603 11.9162 13.778 11.8908 13.7902 11.8628C13.8023 11.8347 13.8085 11.8047 13.8085 11.7744V1.37555C13.8085 1.3452 13.8023 1.31514 13.7902 1.28709C13.778 1.25905 13.7603 1.23357 13.7379 1.21211C13.7155 1.19065 13.6889 1.17362 13.6596 1.16202C13.6303 1.15041 13.5989 1.14445 13.5673 1.14446ZM10.777 0.825302C10.777 0.728993 10.8169 0.636629 10.888 0.568528C10.9591 0.500428 11.0555 0.462169 11.156 0.462169C11.2565 0.462169 11.353 0.500428 11.4241 0.568528C11.4951 0.636629 11.5351 0.728993 11.5351 0.825302V1.92566C11.5351 2.02197 11.4951 2.11433 11.4241 2.18244C11.353 2.25054 11.2565 2.28879 11.156 2.28879C11.0555 2.28879 10.9591 2.25054 10.888 2.18244C10.8169 2.11433 10.777 2.02197 10.777 1.92566V0.825302ZM2.55063 0.825302C2.55063 0.728993 2.59056 0.636629 2.66165 0.568528C2.73274 0.500428 2.82916 0.462169 2.92969 0.462169C3.03022 0.462169 3.12664 0.500428 3.19773 0.568528C3.26881 0.636629 3.30875 0.728993 3.30875 0.825302V1.92566C3.30875 2.02197 3.26881 2.11433 3.19773 2.18244C3.12664 2.25054 3.03022 2.28879 2.92969 2.28879C2.82916 2.28879 2.73274 2.25054 2.66165 2.18244C2.59056 2.11433 2.55063 2.02197 2.55063 1.92566V0.825302ZM0.759664 1.60663H2.06818V1.92566C2.06818 2.14454 2.15895 2.35446 2.32051 2.50924C2.48208 2.66401 2.7012 2.75096 2.92969 2.75096C3.15817 2.75096 3.3773 2.66401 3.53886 2.50924C3.70043 2.35446 3.79119 2.14454 3.79119 1.92566V1.60663H10.2945V1.92566C10.2945 2.14454 10.3853 2.35446 10.5468 2.50924C10.7084 2.66401 10.9275 2.75096 11.156 2.75096C11.3845 2.75096 11.6036 2.66401 11.7652 2.50924C11.9268 2.35446 12.0175 2.14454 12.0175 1.92566V1.60663H13.326V4.25856H0.759664V1.60663ZM0.759664 4.7202H13.326V11.5433H11.5571C11.4932 11.5433 11.4318 11.5676 11.3866 11.611C11.3413 11.6543 11.3159 11.7131 11.3159 11.7744V13.4689H0.759664V4.7202ZM12.985 12.0054L11.7984 13.1421V12.0054H12.985Z" fill="#808080"/>
<path d="M3.83684 5.94208H2.59626C2.5323 5.94211 2.47097 5.96649 2.42573 6.00986C2.3805 6.05322 2.35508 6.11203 2.35504 6.17336V7.36282C2.35508 7.42415 2.3805 7.48296 2.42573 7.52633C2.47097 7.5697 2.5323 7.59407 2.59626 7.59411H3.83684C3.90082 7.59411 3.96218 7.56974 4.00741 7.52637C4.05265 7.48299 4.07807 7.42417 4.07807 7.36282V6.17336C4.07807 6.11202 4.05265 6.05319 4.00741 6.00982C3.96218 5.96644 3.90082 5.94208 3.83684 5.94208ZM3.59562 7.13154H2.83749V6.40465H3.59562V7.13154Z" fill="#808080"/>
<path d="M6.3877 5.94208H5.14712C5.08323 5.94222 5.022 5.96664 4.97686 6.01C4.93172 6.05335 4.90635 6.1121 4.90631 6.17336V7.36282C4.90635 7.42415 4.93177 7.48296 4.977 7.52633C5.02223 7.5697 5.08357 7.59407 5.14753 7.59411H6.38811C6.45208 7.59407 6.51341 7.5697 6.55864 7.52633C6.60387 7.48296 6.6293 7.42415 6.62934 7.36282V6.17336C6.62932 6.14296 6.62305 6.11286 6.6109 6.08478C6.59874 6.0567 6.58094 6.0312 6.5585 6.00972C6.53606 5.98824 6.50942 5.97121 6.48012 5.9596C6.45081 5.948 6.41941 5.94204 6.3877 5.94208ZM6.14648 7.13154H5.38876V6.40465H6.14689L6.14648 7.13154Z" fill="#808080"/>
<path d="M8.93864 5.94208H7.69806C7.66635 5.94204 7.63495 5.948 7.60564 5.9596C7.57633 5.97121 7.5497 5.98824 7.52726 6.00972C7.50482 6.0312 7.48701 6.0567 7.47486 6.08478C7.4627 6.11286 7.45644 6.14296 7.45642 6.17336V7.36282C7.45646 7.42415 7.48188 7.48296 7.52711 7.52633C7.57234 7.5697 7.63368 7.59407 7.69764 7.59411H8.93822C9.00219 7.59407 9.06352 7.5697 9.10875 7.52633C9.15398 7.48296 9.17941 7.42415 9.17945 7.36282V6.17336C9.17941 6.1121 9.15404 6.05335 9.1089 6.01C9.06376 5.96664 9.00253 5.94222 8.93864 5.94208ZM8.69741 7.13154H7.93887V6.40465H8.697L8.69741 7.13154Z" fill="#808080"/>
<path d="M10.2489 7.59411H11.4895C11.5534 7.59407 11.6148 7.5697 11.66 7.52633C11.7052 7.48296 11.7307 7.42415 11.7307 7.36282V6.17336C11.7307 6.11203 11.7052 6.05322 11.66 6.00986C11.6148 5.96649 11.5534 5.94211 11.4895 5.94208H10.2489C10.1849 5.94208 10.1236 5.96644 10.0783 6.00982C10.0331 6.05319 10.0077 6.11202 10.0077 6.17336V7.36282C10.0077 7.42417 10.0331 7.48299 10.0783 7.52637C10.1236 7.56974 10.1849 7.59411 10.2489 7.59411ZM10.4901 6.40465H11.2483V7.13154H10.4901V6.40465Z" fill="#808080"/>
<path d="M3.83684 8.25275H2.59626C2.5323 8.25278 2.47097 8.27717 2.42573 8.32054C2.3805 8.36392 2.35508 8.42274 2.35504 8.48409V9.67383C2.35508 9.73517 2.3805 9.79399 2.42573 9.83737C2.47097 9.88075 2.5323 9.90513 2.59626 9.90517H3.83684C3.90082 9.90517 3.96218 9.88079 4.00741 9.83741C4.05265 9.79402 4.07807 9.73518 4.07807 9.67383V8.48409C4.07807 8.42273 4.05265 8.36389 4.00741 8.3205C3.96218 8.27712 3.90082 8.25275 3.83684 8.25275ZM3.59562 9.44249H2.83749V8.71542H3.59562V9.44249Z" fill="#808080"/>
<path d="M6.3877 8.25275H5.14712C5.08323 8.25289 5.022 8.27732 4.97686 8.32068C4.93172 8.36405 4.90635 8.42281 4.90631 8.48409V9.67383C4.90635 9.73517 4.93177 9.79399 4.977 9.83737C5.02223 9.88075 5.08357 9.90513 5.14753 9.90517H6.38811C6.45208 9.90513 6.51341 9.88075 6.55864 9.83737C6.60387 9.79399 6.6293 9.73517 6.62934 9.67383V8.48409C6.62932 8.45368 6.62305 8.42357 6.6109 8.39548C6.59874 8.3674 6.58094 8.34189 6.5585 8.3204C6.53606 8.29892 6.50942 8.28189 6.48012 8.27028C6.45081 8.25867 6.41941 8.25271 6.3877 8.25275ZM6.14648 9.44249H5.38876V8.71542H6.14689L6.14648 9.44249Z" fill="#808080"/>
<path d="M8.93864 8.25275H7.69806C7.66635 8.25271 7.63495 8.25867 7.60564 8.27028C7.57633 8.28189 7.5497 8.29892 7.52726 8.3204C7.50482 8.34189 7.48701 8.3674 7.47486 8.39548C7.4627 8.42357 7.45644 8.45368 7.45642 8.48409V9.67383C7.45646 9.73517 7.48188 9.79399 7.52711 9.83737C7.57234 9.88075 7.63368 9.90513 7.69764 9.90517H8.93822C9.00219 9.90513 9.06352 9.88075 9.10875 9.83737C9.15398 9.79399 9.17941 9.73517 9.17945 9.67383V8.48409C9.17941 8.42281 9.15404 8.36405 9.1089 8.32068C9.06376 8.27732 9.00253 8.25289 8.93864 8.25275ZM8.69741 9.44249H7.93887V8.71542H8.697L8.69741 9.44249Z" fill="#808080"/>
<path d="M11.4895 9.90517C11.5534 9.90513 11.6148 9.88075 11.66 9.83737C11.7052 9.79399 11.7307 9.73517 11.7307 9.67383V8.48409C11.7307 8.42274 11.7052 8.36392 11.66 8.32054C11.6148 8.27717 11.5534 8.25278 11.4895 8.25275H10.2489C10.1849 8.25275 10.1236 8.27712 10.0783 8.3205C10.0331 8.36389 10.0077 8.42273 10.0077 8.48409V9.67383C10.0077 9.73518 10.0331 9.79402 10.0783 9.83741C10.1236 9.88079 10.1849 9.90517 10.2489 9.90517H11.4895ZM10.4901 8.71542H11.2483V9.44249H10.4901V8.71542Z" fill="#808080"/>
<path d="M3.83684 10.564H2.59626C2.5323 10.564 2.47097 10.5884 2.42573 10.6318C2.3805 10.6751 2.35508 10.7339 2.35504 10.7953V11.9846C2.35508 12.0459 2.3805 12.1047 2.42573 12.1481C2.47097 12.1914 2.5323 12.2158 2.59626 12.2158H3.83684C3.90082 12.2158 3.96218 12.1915 4.00741 12.1481C4.05265 12.1047 4.07807 12.0459 4.07807 11.9846V10.7953C4.07807 10.7339 4.05265 10.6751 4.00741 10.6317C3.96218 10.5884 3.90082 10.564 3.83684 10.564ZM3.59562 11.7533H2.83749V11.0265H3.59562V11.7533Z" fill="#808080"/>
<path d="M6.3877 10.564H5.14712C5.08323 10.5641 5.022 10.5886 4.97686 10.6319C4.93172 10.6753 4.90635 10.734 4.90631 10.7953V11.9846C4.90635 12.0459 4.93177 12.1047 4.977 12.1481C5.02223 12.1914 5.08357 12.2158 5.14753 12.2158H6.38811C6.45208 12.2158 6.51341 12.1914 6.55864 12.1481C6.60387 12.1047 6.6293 12.0459 6.62934 11.9846V10.7953C6.62932 10.7649 6.62305 10.7348 6.6109 10.7067C6.59874 10.6786 6.58094 10.6531 6.5585 10.6316C6.53606 10.6102 6.50942 10.5931 6.48012 10.5815C6.45081 10.5699 6.41941 10.564 6.3877 10.564ZM6.14648 11.7533H5.38876V11.0265H6.14689L6.14648 11.7533Z" fill="#808080"/>
<path d="M8.93864 10.564H7.69806C7.66635 10.564 7.63495 10.5699 7.60564 10.5815C7.57633 10.5931 7.5497 10.6102 7.52726 10.6316C7.50482 10.6531 7.48701 10.6786 7.47486 10.7067C7.4627 10.7348 7.45644 10.7649 7.45642 10.7953V11.9846C7.45646 12.0459 7.48188 12.1047 7.52711 12.1481C7.57234 12.1914 7.63368 12.2158 7.69764 12.2158H8.93822C9.00219 12.2158 9.06352 12.1914 9.10875 12.1481C9.15398 12.1047 9.17941 12.0459 9.17945 11.9846V10.7953C9.17941 10.734 9.15404 10.6753 9.1089 10.6319C9.06376 10.5886 9.00253 10.5641 8.93864 10.564ZM8.69741 11.7533H7.93887V11.0265H8.697L8.69741 11.7533Z" fill="#808080"/>
</svg>
