<svg width="13" height="15" viewBox="0 0 13 15" fill="none" xmlns="http://www.w3.org/2000/svg">
<path d="M6.04769 0.146606C4.53918 0.146606 3.31223 1.38774 3.31223 2.91328V4.34662C3.31223 5.87227 4.53918 7.1134 6.04769 7.1134C7.55632 7.1134 8.78316 5.87227 8.78316 4.34662V2.91328C8.78319 1.38774 7.55632 0.146606 6.04769 0.146606Z" fill="#74C48C"/>
<path d="M12.0805 10.7185C11.2045 9.2089 9.80443 8.08973 8.13811 7.56713C8.09947 7.55501 8.05769 7.56531 8.02891 7.59408C7.25376 8.367 6.29057 8.97002 6.04977 9.11568C5.79273 8.94952 4.71004 8.23584 4.06638 7.59408C4.03771 7.56531 3.99559 7.55501 3.95718 7.56713C2.29063 8.08984 0.890645 9.20901 0.0150359 10.7186C-0.00501196 10.7531 -0.00501196 10.7961 0.0150359 10.8306C1.25845 12.9734 3.57 14.3044 6.04764 14.3044C8.5254 14.3044 10.8371 12.9734 12.0805 10.8306C12.1006 10.796 12.1006 10.753 12.0805 10.7185ZM9.76814 11.5437C9.76814 11.6048 9.71068 11.6514 9.65043 11.6514H8.90956C8.84919 11.6514 8.78333 11.7039 8.78333 11.7651V12.5399C8.78333 12.6008 8.75108 12.6474 8.69071 12.6474H8.02532C7.96495 12.6474 7.90806 12.6008 7.90806 12.5399V11.7651C7.90784 11.704 7.86662 11.6514 7.80625 11.6514H7.03346C6.97309 11.6514 6.92314 11.6047 6.92314 11.5437V10.8766C6.92314 10.8156 6.97309 10.7663 7.03346 10.7663H7.80625C7.86662 10.7663 7.90784 10.7164 7.90784 10.6553V9.87954C7.90784 9.81849 7.96473 9.77035 8.0251 9.77035H8.68332C8.74357 9.77035 8.78322 9.81849 8.78322 9.87954V10.6576C8.78322 10.7187 8.84168 10.7662 8.90216 10.7662H9.65043C9.71068 10.7662 9.76814 10.8178 9.76814 10.8789V11.5437Z" fill="#74C48C"/>
</svg>
