<svg width="144" height="96" viewBox="0 0 144 96" fill="none" xmlns="http://www.w3.org/2000/svg">
<path d="M140.708 47.9491C139.625 36.3035 134.401 24.9418 125.993 16.2201C116.177 6.02677 103.283 0.418945 89.684 0.418945C76.0846 0.418945 63.0833 6.02126 53.1407 16.1953C43.4958 26.0689 37.9597 39.2742 37.9597 52.4271C37.9597 52.8377 37.9734 53.2317 37.9872 53.612L38.001 53.9592L42.4101 53.8187V53.4549C42.4101 53.0967 42.3853 52.7577 42.3853 52.4271C42.3853 40.415 47.4613 28.3341 56.3125 19.2761C65.4063 9.95914 77.2723 4.82805 89.7005 4.82805C102.129 4.82805 113.86 9.95639 122.835 19.2651C130.454 27.1712 135.236 37.4196 136.296 47.9243L140.708 47.9491Z" fill="#519D73"/>
<path d="M138.677 47.8773C138.691 47.4226 138.716 46.968 138.716 46.4995C138.716 22.1309 116.684 0 89.2042 0C61.7245 0 39.2022 22.1309 39.2022 46.5105C39.2022 46.968 39.2243 47.4226 39.2408 47.8884L138.677 47.8773Z" fill="#519D73"/>
<g opacity="0.5">
<path opacity="0.5" d="M139.636 47.8772C139.636 47.4721 139.669 47.0725 139.669 46.6647C139.669 25.0463 120.104 5.42029 95.7049 5.42029C71.306 5.42029 51.3025 25.0463 51.3025 46.6647C51.3025 47.0725 51.3245 47.4721 51.3383 47.8772H139.636Z" fill="#CCDE64"/>
</g>
<g opacity="0.5">
<path opacity="0.5" d="M117.635 47.8773C117.649 47.4943 117.665 47.1112 117.665 46.7254C117.668 26.2066 101.076 7.57812 80.3807 7.57812C59.6854 7.57812 42.7297 26.2066 42.7297 46.7254C42.7297 47.1112 42.7462 47.4943 42.76 47.8773H117.635Z" fill="#2C7439"/>
</g>
<g opacity="0.5">
<path opacity="0.5" d="M95.4569 47.8278C95.4569 47.5964 95.4734 47.3649 95.4734 47.1307C95.4734 34.6997 85.6026 23.4235 73.3012 23.4235C60.9998 23.4235 50.8947 34.7218 50.8947 47.1417C50.8947 47.3759 50.8947 47.6074 50.9139 47.8389L95.4569 47.8278Z" fill="#74C48C"/>
</g>
<path d="M32.3985 86.6747L33.5697 83.7206H34.3495L32.5473 87.9643C32.464 88.1715 32.3497 88.3647 32.2083 88.5375C32.1069 88.6512 31.9805 88.7398 31.8391 88.7966C31.6707 88.8623 31.4907 88.8932 31.31 88.8875C31.1914 88.8952 31.0724 88.884 30.9573 88.8544L30.9766 88.3226L31.2962 88.3364C31.413 88.3404 31.5283 88.3089 31.6267 88.2459C31.7252 88.1829 31.8021 88.0914 31.8474 87.9836L31.9355 87.8018L32.0678 87.4904L30.3317 83.7206H31.084L32.3985 86.6747Z" fill="#19381D"/>
<path d="M39.4254 88.8131H38.7503V86.4597H36.182V88.8131H35.5096V83.7206H36.182V85.9086H38.7503V83.7206H39.4254V88.8131Z" fill="#19381D"/>
<path d="M41.6962 88.8131H41.0238V83.7206H41.6962V88.8131Z" fill="#19381D"/>
<path d="M43.2833 88.8131V83.7206H44.9367C45.3789 83.688 45.8187 83.8087 46.1823 84.0623C46.3259 84.1874 46.4385 84.3441 46.5112 84.52C46.5839 84.696 46.6147 84.8865 46.6012 85.0764C46.6056 85.3032 46.5349 85.5251 46.4 85.7075C46.2574 85.8962 46.0672 86.0436 45.8489 86.1346C46.1101 86.202 46.3405 86.3566 46.502 86.5728C46.6645 86.7966 46.7487 87.0678 46.7417 87.3444C46.752 87.5458 46.7172 87.7471 46.64 87.9334C46.5628 88.1198 46.445 88.2866 46.2953 88.4218C45.9403 88.7032 45.4935 88.8426 45.0415 88.8131H43.2833ZM43.953 85.8921H44.9698C45.2228 85.9044 45.4719 85.8263 45.6725 85.6717C45.7619 85.5998 45.8334 85.5081 45.8812 85.4038C45.9291 85.2996 45.952 85.1856 45.9481 85.0709C45.9582 84.9568 45.9413 84.842 45.8987 84.7357C45.8561 84.6294 45.789 84.5346 45.7028 84.4591C45.4823 84.3161 45.2209 84.2493 44.9588 84.269H43.953V85.8921ZM43.953 86.4432V88.2758H45.0552C45.323 88.2899 45.5865 88.2034 45.7938 88.0333C45.8863 87.9483 45.959 87.8441 46.0066 87.7278C46.0542 87.6116 46.0756 87.4863 46.0693 87.3609C46.0693 86.7491 45.7359 86.4432 45.069 86.4432H43.953Z" fill="#19381D"/>
<path d="M50.9806 86.4597H48.7761V88.2647H51.3416V88.8158H48.101V83.7206H51.3031V84.2717H48.7761V85.9114H50.9806V86.4597Z" fill="#19381D"/>
<path d="M53.2041 86.8207V88.813H52.5317V83.7205H54.4111C54.8858 83.6919 55.3536 83.8446 55.7201 84.1476C55.8771 84.2897 56.0009 84.4645 56.0828 84.6598C56.1647 84.855 56.2027 85.0659 56.194 85.2775C56.2069 85.4901 56.172 85.703 56.0919 85.9004C56.0118 86.0978 55.8885 86.2748 55.7311 86.4183C55.3517 86.7089 54.8797 86.8518 54.4028 86.8207H53.2041ZM53.2041 86.2695H54.4111C54.7085 86.29 55.003 86.1997 55.2378 86.016C55.3347 85.9215 55.4096 85.8068 55.4572 85.6802C55.5048 85.5535 55.524 85.4179 55.5134 85.283C55.5216 85.1487 55.5012 85.0142 55.4538 84.8884C55.4063 84.7625 55.3327 84.6481 55.2378 84.5527C55.0205 84.3645 54.7397 84.266 54.4525 84.2771H53.2069L53.2041 86.2695Z" fill="#19381D"/>
<path d="M61.1572 87.1981C61.1244 87.6745 60.9104 88.1202 60.5592 88.4437C60.1848 88.7512 59.7094 88.9083 59.2255 88.8846C58.9509 88.894 58.6778 88.8406 58.4271 88.7284C58.1763 88.6161 57.9546 88.4481 57.7787 88.237C57.3935 87.7438 57.198 87.1288 57.2276 86.5037V86.0159C57.2178 85.5852 57.3044 85.1578 57.4811 84.7648C57.6338 84.4242 57.8841 84.1365 58.2004 83.9381C58.5247 83.7412 58.8985 83.6408 59.2778 83.6488C59.7539 83.626 60.2203 83.789 60.5785 84.1035C60.9185 84.4356 61.1219 84.8828 61.1489 85.3573H60.4738C60.4513 85.0278 60.3172 84.7158 60.0935 84.4727C59.8648 84.2759 59.5679 84.1769 59.2668 84.1972C59.0725 84.1889 58.8791 84.2276 58.703 84.3101C58.5269 84.3927 58.3734 84.5165 58.2555 84.6711C57.9897 85.0714 57.862 85.5474 57.8917 86.0269V86.5285C57.8676 86.9935 57.988 87.4545 58.2362 87.8485C58.3428 88.0059 58.4879 88.1336 58.6576 88.2194C58.8273 88.3052 59.0161 88.3464 59.2062 88.339C59.5139 88.36 59.8189 88.27 60.066 88.0854C60.2978 87.8473 60.4383 87.5351 60.4628 87.2036L61.1572 87.1981Z" fill="#19381D"/>
<path d="M65.2438 87.4793H63.1054L62.6259 88.8131H61.9342L63.8632 83.7206H64.4832L66.4122 88.8131H65.7233L65.2438 87.4793ZM63.3148 86.9282H65.0344L64.1663 84.5473L63.3148 86.9282Z" fill="#19381D"/>
<path d="M71.3722 83.7204V88.8129H70.6998V84.2688H68.8728L68.7819 86.2887C68.7722 86.8039 68.7029 87.3162 68.5752 87.8154C68.5024 88.1067 68.3429 88.369 68.1178 88.5677C67.8845 88.7371 67.6012 88.8234 67.3131 88.8129H67.0927V88.2618H67.2332C67.4215 88.2587 67.6013 88.1826 67.7347 88.0496C67.8769 87.8786 67.9719 87.6734 68.0103 87.4544C68.0871 87.0387 68.1304 86.6176 68.1398 86.195L68.2445 83.7149L71.3722 83.7204Z" fill="#19381D"/>
<path d="M73.6019 85.7984H74.8668C75.3179 85.7772 75.7611 85.9223 76.1123 86.2062C76.2626 86.3429 76.3808 86.5111 76.4585 86.6988C76.5361 86.8865 76.5713 87.0891 76.5615 87.292C76.5709 87.4975 76.5354 87.7026 76.4573 87.893C76.3793 88.0834 76.2606 88.2545 76.1096 88.3942C75.7656 88.6829 75.3265 88.8332 74.8778 88.8158H72.9295V83.7206H73.6019V85.7984ZM73.6019 86.3495V88.2785H74.8282C74.9699 88.2865 75.1119 88.2663 75.2458 88.219C75.3796 88.1716 75.5028 88.0982 75.608 88.0029C75.7012 87.9097 75.7738 87.7981 75.8213 87.6752C75.8687 87.5523 75.89 87.4208 75.8836 87.2892C75.8895 87.1626 75.8679 87.0362 75.8203 86.9187C75.7727 86.8012 75.7003 86.6954 75.608 86.6085C75.3957 86.4306 75.1242 86.3391 74.8475 86.3523L73.6019 86.3495Z" fill="#19381D"/>
<path d="M81.72 88.8131H81.0449V86.4597H78.4766V88.8131H77.8042V83.7206H78.4766V85.9086H81.0449V83.7206H81.72V88.8131Z" fill="#19381D"/>
<path d="M86.1453 87.4793H84.0124L83.5329 88.8131H82.8385L84.784 83.7206H85.3737L87.322 88.8131H86.6331L86.1453 87.4793ZM84.2163 86.9282H85.9497L85.0816 84.5473L84.2163 86.9282Z" fill="#19381D"/>
<path d="M59.2253 93.6935H58.6053V95.9807H57.9329V90.8854H58.6053V93.1423H59.1289L60.9091 90.8965H61.7358L59.7903 93.3766L61.8791 96H61.0524L59.2253 93.6935Z" fill="#19381D"/>
<path d="M66.7153 90.8854V95.9779H66.0429V91.4338H64.2076L64.1167 93.4537C64.105 93.9689 64.0347 94.4811 63.9072 94.9803C63.8356 95.2721 63.6759 95.5348 63.4498 95.7326C63.2176 95.902 62.9351 95.9884 62.6479 95.9779H62.4274V95.4268H62.5652C62.7537 95.4242 62.9337 95.3481 63.0668 95.2146C63.2089 95.0436 63.3039 94.8384 63.3423 94.6193C63.4191 94.2037 63.4625 93.7826 63.4718 93.36L63.5766 90.8799L66.7153 90.8854Z" fill="#19381D"/>
<path d="M69.0109 95.978H68.3413V90.8854H69.0109V95.978Z" fill="#19381D"/>
<path d="M74.5139 95.978H73.8525V93.6246H71.2842V95.978H70.6118V90.8854H71.2842V93.0735H73.8525V90.8854H74.5277L74.5139 95.978Z" fill="#19381D"/>
<path d="M76.7846 95.978H76.1122V90.8854H76.7846V95.978Z" fill="#19381D"/>
<path d="M79.6947 93.6935H79.0884V95.9807H78.416V90.8854H79.0884V93.1423H79.612L81.3922 90.8965H82.2189L80.2733 93.3766L82.3622 96H81.5355L79.6947 93.6935Z" fill="#19381D"/>
<path d="M86.1453 94.6442H84.0124L83.5329 95.978H82.8385L84.784 90.8854H85.3737L87.322 95.978H86.6331L86.1453 94.6442ZM84.2163 94.0931H85.9497L85.0816 91.7121L84.2163 94.0931Z" fill="#19381D"/>
<path d="M0 64.6705C0 56.9987 6.44004 50.7901 14.3819 50.7901C22.3238 50.7901 28.7639 56.9987 28.7639 64.6705C28.7639 72.4746 22.3211 78.8127 14.3819 78.8127C6.4428 78.8127 0 72.4746 0 64.6705ZM24.3796 64.6705C24.3796 59.2831 19.9043 54.8961 14.3819 54.8961C8.85954 54.8961 4.3843 59.2831 4.3843 64.6705C4.3843 65.9834 4.6429 67.2835 5.14533 68.4964C5.64775 69.7094 6.38418 70.8115 7.31254 71.7399C8.24091 72.6683 9.34304 73.4047 10.556 73.9071C11.769 74.4096 13.069 74.6681 14.3819 74.6681C15.6948 74.6681 16.9949 74.4096 18.2079 73.9071C19.4208 73.4047 20.523 72.6683 21.4513 71.7399C22.3797 70.8115 23.1161 69.7094 23.6186 68.4964C24.121 67.2835 24.3796 65.9834 24.3796 64.6705Z" fill="#519D73"/>
<path d="M83.2605 63.7997C82.8526 58.732 78.6529 54.8079 73.2628 54.8079C67.6026 54.8079 63.2211 59.0957 63.2211 64.6705C63.2211 70.1488 67.6026 74.3457 73.2628 74.3457H85.1509V78.3635H73.2628C65.4587 78.3635 58.8368 72.1109 58.8368 64.6705C58.8368 57.1805 65.4504 50.7901 73.2628 50.7901C81.0752 50.7901 87.6916 57.1282 87.6916 64.6705V67.8203H65.7315V63.7997H83.2605Z" fill="#519D73"/>
<path d="M101.544 51.2558H90.676V95.898H95.0713V55.3563H101.558C107.218 55.3563 111.6 59.0103 111.6 64.6705C111.6 69.9642 107.218 74.2576 101.558 74.2576H97.5707V78.3635H101.544C109.349 78.3635 115.97 71.9731 115.97 64.6705C115.97 56.9987 109.357 51.2476 101.544 51.2476" fill="#519D73"/>
<path d="M122.639 51.2476H118.255V78.3635H122.639V51.2476Z" fill="#519D73"/>
<path d="M125.384 78.3635V65.1693C125.384 57.3624 131.954 50.7901 139.81 50.7901H143.01V54.8079H139.802C134.186 54.8079 129.757 59.3245 129.757 65.1693V78.3635H125.384Z" fill="#519D73"/>
<path d="M42.3135 51.2559V51.2338H37.943V55.3674H41.9167C47.5742 55.3674 51.9585 58.7431 51.9585 64.6816C51.9585 70.0662 47.5742 74.2686 41.9167 74.2686H35.4298V51.3661C35.4298 51.3661 35.4298 51.2035 35.4298 51.1511C35.4543 38.361 40.0621 26.0031 48.4174 16.3192L45.0555 13.5415C36.0105 24.0445 31.0396 37.4473 31.0483 51.3082V78.3636H41.9167C49.7181 78.3636 56.3428 72.0641 56.3428 64.6706C56.3428 57.1751 49.9468 51.4488 42.3135 51.2559Z" fill="#519D73"/>
<g opacity="0.5">
<path opacity="0.5" d="M140.064 47.6072C140.064 47.3537 140.083 47.1002 140.083 46.8466C140.083 33.2804 129.311 20.9652 115.874 20.9652C102.438 20.9652 91.423 33.2804 91.423 46.8466C91.423 47.1002 91.423 47.3537 91.4423 47.6072H140.064Z" fill="#519D73"/>
</g>
<path d="M69.5506 41.0597C68.4483 44.7936 67.5196 46.9486 67.0236 47.9324H81.8051C81.7775 44.1102 79.4077 35.6282 83.9738 28.7913C87.2063 23.9524 91.1579 19.7582 99.1522 19.0583C102.426 18.6697 105.702 18.8047 108.993 18.8957C105.102 17.4425 100.955 16.7983 96.8071 17.0025C92.1373 17.2386 87.6272 18.7795 83.7892 21.4502C83.475 19.7499 82.5932 18.8378 82.3204 18.3059C81.7693 17.245 79.8403 15.4869 79.8403 15.4869C79.8403 15.4869 79.8017 15.9719 80.1985 17.1403C81.1052 19.8133 81.3477 22.3265 81.152 23.5528L75.1391 28.8878C75.1391 28.8878 65.1635 22.2741 62.8597 22.6462C62.8597 22.6462 68.5061 27.4741 69.5533 31.5333C70.9201 36.8435 69.5506 41.0597 69.5506 41.0597Z" fill="white"/>
<path d="M110.889 27.1353C105.24 26.1322 106.593 20.7421 106.593 20.7421C106.593 20.7421 112.065 21.3952 110.889 27.1353Z" fill="white"/>
<path d="M102.63 28.345C99.1938 23.7485 103.87 20.7421 103.87 20.7421C103.87 20.7421 107.414 24.961 102.63 28.345Z" fill="white"/>
<path d="M94.603 24.7131C95.7328 19.086 101.093 20.5658 101.093 20.5658C101.093 20.5658 100.307 26.0221 94.603 24.7131Z" fill="white"/>
<path d="M114.198 13.0124C108.574 11.1247 107.136 16.6857 107.136 16.6857C107.136 16.6857 112.432 18.8021 114.198 13.0124Z" fill="white"/>
<path d="M103.239 7.89502C99.5078 12.8553 104.556 16.1235 104.556 16.1235C104.556 16.1235 108.403 11.5739 103.239 7.89502Z" fill="white"/>
<path d="M91.9273 10.1962C93.8949 16.9779 100.316 14.6053 100.316 14.6053C100.316 14.6053 98.7945 8.0109 91.9273 10.1962Z" fill="white"/>
<path d="M84.8752 13.1446C87.6309 18.9316 93.0265 15.8783 93.0265 15.8783C93.0265 15.8783 90.7117 10.1795 84.8752 13.1446Z" fill="white"/>
<path d="M62.1435 22.2136C57.1833 23.867 55.924 18.9399 55.924 18.9399C55.924 18.9399 60.6031 17.0853 62.1435 22.2136Z" fill="white"/>
<path d="M62.612 23.9359C61.879 29.1222 56.9188 28.0695 56.9188 28.0695C56.9188 28.0695 57.3376 23.0486 62.612 23.9359Z" fill="white"/>
<path d="M66.8698 15.3381C69.0743 20.0889 64.3318 21.8912 64.3318 21.8912C64.3318 21.8912 61.9619 17.4545 66.8698 15.3381Z" fill="white"/>
<path d="M72.1193 21.9463C69.5703 25.2532 66.5446 22.5664 66.5446 22.5664C66.5446 22.5664 68.8097 19.2513 72.1193 21.9463Z" fill="white"/>
<path d="M79.1409 14.495C75.0073 14.0541 75.7156 10.0859 75.7156 10.0859C75.7156 10.0859 79.703 10.2843 79.1409 14.495Z" fill="white"/>
<path d="M97.2924 32.2746C95.1209 27.6423 99.745 25.8594 99.745 25.8594C99.745 25.8594 102.082 30.1831 97.2924 32.2746Z" fill="white"/>
<path d="M109.296 35.9205C103.862 33.4238 106.645 28.3451 106.645 28.3451C106.645 28.3451 111.991 30.4422 109.296 35.9205Z" fill="white"/>
<path d="M118.17 30.1995C112.438 29.6842 113.328 24.1811 113.328 24.1811C113.328 24.1811 118.853 24.363 118.17 30.1995Z" fill="white"/>
<path d="M91.0203 34.3277C89.3366 28.5408 95.0602 27.2952 95.0602 27.2952C95.0602 27.2952 97.0002 32.768 91.0203 34.3277Z" fill="white"/>
<path d="M101.349 41.2637C97.5625 36.5542 102.371 33.2171 102.371 33.2171C102.371 33.2171 106.259 37.527 101.349 41.2637Z" fill="white"/>
<path d="M56.9185 23.7292C53.9506 28.0446 49.9852 24.8811 49.9852 24.8811C49.9852 24.8811 52.5976 20.5849 56.9185 23.7292Z" fill="white"/>
<path d="M62.2183 18.8295C58.6745 16.625 61.0554 13.3402 61.0554 13.3402C61.0554 13.3402 64.5744 15.2719 62.2183 18.8295Z" fill="white"/>
<path d="M80.3005 14.2937C79.5069 10.2126 83.4971 9.72205 83.4971 9.72205C83.4971 9.72205 84.4892 13.5938 80.3005 14.2937Z" fill="white"/>
<path d="M78.6884 15.9501C77.2913 19.8218 73.6455 18.207 73.6455 18.207C73.6455 18.207 74.7753 14.4179 78.6884 15.9501Z" fill="white"/>
<path d="M79.2014 24.0544C75.0238 25.0768 74.3293 20.9653 74.3293 20.9653C74.3293 20.9653 78.2782 19.7638 79.2014 24.0544Z" fill="white"/>
<path d="M54.885 28.5074C53.6119 33.8645 48.5193 32.2689 48.5193 32.2689C48.5193 32.2689 49.4508 27.0607 54.885 28.5074Z" fill="white"/>
<path d="M59.6355 30.037C61.8786 34.0603 57.8388 35.9535 57.8388 35.9535C57.8388 35.9535 55.4689 32.2222 59.6355 30.037Z" fill="white"/>
<path d="M66.3402 32.1119C70.3249 35.5097 66.7701 39.1307 66.7701 39.1307C66.7701 39.1307 62.7661 36.0994 66.3402 32.1119Z" fill="white"/>
<path d="M120.672 41.9802C114.94 41.4649 115.83 35.9618 115.83 35.9618C115.83 35.9618 121.352 36.1437 120.672 41.9802Z" fill="white"/>
<path d="M64.0316 26.0247C67.2309 30.1583 63.0064 32.9773 63.0064 32.9773C63.0064 32.9773 59.7134 29.1772 64.0316 26.0247Z" fill="white"/>
<path d="M118.065 21.092C115.077 15.983 110.329 19.2044 110.329 19.2044C110.329 19.2044 112.917 24.2804 118.065 21.092Z" fill="white"/>
<path d="M89.7335 27.1628C89.0997 23.0513 93.1147 22.7206 93.1147 22.7206C93.1147 22.7206 93.947 26.6282 89.7335 27.1628Z" fill="white"/>
<path d="M98.2512 5.34863C96.7411 8.56728 99.957 9.80458 99.957 9.80458C99.957 9.80458 101.577 6.80088 98.2512 5.34863Z" fill="white"/>
<path d="M54.9955 33.5643C56.2301 37.5573 52.2867 38.4777 52.2867 38.4777C52.2867 38.4777 50.8868 34.7217 54.9955 33.5643Z" fill="white"/>
<path d="M61.5704 37.549C64.0946 40.8806 60.6996 43.0906 60.6996 43.0906C60.6996 43.0906 58.101 40.0346 61.5704 37.549Z" fill="white"/>
<path d="M49.9852 35.3307C49.908 39.5083 45.8737 39.1473 45.8737 39.1473C45.8737 39.1473 45.7222 35.1378 49.9852 35.3307Z" fill="white"/>
<path d="M70.8623 12.9821C72.6452 16.0602 75.5056 14.1284 75.5056 14.1284C75.5056 14.1284 73.9542 11.0806 70.8623 12.9821Z" fill="white"/>
<path d="M69.1819 19.4908C72.7367 19.5459 72.5438 16.1068 72.5438 16.1068C72.5438 16.1068 69.1378 15.8616 69.1819 19.4908Z" fill="white"/>
<path d="M107.86 11.4995C111.415 11.5546 111.225 8.11554 111.225 8.11554C111.225 8.11554 107.819 7.87028 107.86 11.4995Z" fill="white"/>
<path d="M115.389 16.4129C118.505 18.1215 119.941 14.991 119.941 14.991C119.941 14.991 117.045 13.1833 115.389 16.4129Z" fill="white"/>
<path d="M121.371 21.8719C122.749 25.1512 125.819 23.597 125.819 23.597C125.819 23.597 124.681 20.3921 121.371 21.8719Z" fill="white"/>
<path d="M125.819 30.4365C121.278 30.6597 121.371 26.2561 121.371 26.2561C121.371 26.2561 125.714 25.7931 125.819 30.4365Z" fill="white"/>
</svg>
