<svg width="45" height="30" viewBox="0 0 45 30" fill="none" xmlns="http://www.w3.org/2000/svg">
<path d="M43.9714 14.9841C43.6329 11.3448 42.0002 7.7943 39.3728 5.06875C36.3054 1.88334 32.2761 0.130894 28.0263 0.130894C23.7765 0.130894 19.7135 1.88162 16.6065 5.061C13.5925 8.14651 11.8624 12.2732 11.8624 16.3834C11.8624 16.5117 11.8667 16.6349 11.871 16.7537L11.8753 16.8622L13.2532 16.8183V16.7046C13.2532 16.5927 13.2454 16.4868 13.2454 16.3834C13.2454 12.6297 14.8317 8.85438 17.5977 6.02377C20.4395 3.11221 24.1476 1.50874 28.0314 1.50874C31.9152 1.50874 35.5812 3.11135 38.3859 6.02032C40.767 8.49097 42.2611 11.6936 42.5927 14.9763L43.9714 14.9841Z" fill="#519D73"/>
<path d="M43.3367 14.9617C43.341 14.8196 43.3487 14.6775 43.3487 14.5311C43.3487 6.91592 36.4638 0 27.8764 0C19.289 0 12.2508 6.91592 12.2508 14.5345C12.2508 14.6775 12.2576 14.8196 12.2628 14.9651L43.3367 14.9617Z" fill="#519D73"/>
<g opacity="0.5">
<path opacity="0.5" d="M43.6364 14.9617C43.6364 14.8351 43.6467 14.7102 43.6467 14.5828C43.6467 7.82702 37.5325 1.69388 29.9079 1.69388C22.2832 1.69388 16.0321 7.82702 16.0321 14.5828C16.0321 14.7102 16.039 14.8351 16.0433 14.9617H43.6364Z" fill="#CCDE64"/>
</g>
<g opacity="0.5">
<path opacity="0.5" d="M36.7609 14.9616C36.7652 14.8419 36.7704 14.7222 36.7704 14.6017C36.7713 8.18953 31.5862 2.36813 25.119 2.36813C18.6517 2.36813 13.353 8.18953 13.353 14.6017C13.353 14.7222 13.3582 14.8419 13.3625 14.9616H36.7609Z" fill="#2C7439"/>
</g>
<g opacity="0.5">
<path opacity="0.5" d="M29.8304 14.9462C29.8304 14.8739 29.8355 14.8015 29.8355 14.7283C29.8355 10.8437 26.7509 7.31983 22.9067 7.31983C19.0625 7.31983 15.9046 10.8506 15.9046 14.7318C15.9046 14.805 15.9046 14.8773 15.9107 14.9496L29.8304 14.9462Z" fill="#74C48C"/>
</g>
<path d="M0 20.2096C0 17.8122 2.01252 15.872 4.49436 15.872C6.9762 15.872 8.98872 17.8122 8.98872 20.2096C8.98872 22.6484 6.97534 24.6291 4.49436 24.6291C2.01338 24.6291 0 22.6484 0 20.2096ZM7.61862 20.2096C7.61862 18.5261 6.22011 17.1551 4.49436 17.1551C2.76861 17.1551 1.37009 18.5261 1.37009 20.2096C1.37009 20.6199 1.45091 21.0262 1.60792 21.4052C1.76492 21.7843 1.99506 22.1287 2.28517 22.4188C2.57529 22.7089 2.9197 22.9391 3.29875 23.0961C3.67781 23.2531 4.08407 23.3339 4.49436 23.3339C4.90464 23.3339 5.31091 23.2531 5.68996 23.0961C6.06902 22.9391 6.41343 22.7089 6.70355 22.4188C6.99366 22.1287 7.22379 21.7843 7.3808 21.4052C7.53781 21.0262 7.61862 20.6199 7.61862 20.2096Z" fill="#519D73"/>
<path d="M26.0189 19.9375C25.8915 18.3538 24.5791 17.1276 22.8946 17.1276C21.1258 17.1276 19.7566 18.4675 19.7566 20.2096C19.7566 21.9216 21.1258 23.2331 22.8946 23.2331H26.6097V24.4887H22.8946C20.4559 24.4887 18.3865 22.5347 18.3865 20.2096C18.3865 17.869 20.4533 15.872 22.8946 15.872C25.336 15.872 27.4037 17.8527 27.4037 20.2096V21.1939H20.5411V19.9375H26.0189Z" fill="#519D73"/>
<path d="M31.7326 16.0174H28.3363V29.9681H29.7098V17.2988H31.737C33.5058 17.2988 34.875 18.4407 34.875 20.2095C34.875 21.8638 33.5058 23.2055 31.737 23.2055H30.4909V24.4886H31.7326C34.1714 24.4886 36.2408 22.4916 36.2408 20.2095C36.2408 17.8121 34.174 16.0148 31.7326 16.0148" fill="#519D73"/>
<path d="M38.3248 16.0148H36.9547V24.4886H38.3248V16.0148Z" fill="#519D73"/>
<path d="M39.1825 24.4887V20.3655C39.1825 17.9259 41.2355 15.872 43.6906 15.872H44.6904V17.1276H43.688C41.933 17.1276 40.5491 18.539 40.5491 20.3655V24.4887H39.1825Z" fill="#519D73"/>
<path d="M13.223 16.0175V16.0106H11.8572V17.3023H13.099C14.8669 17.3023 16.237 18.3572 16.237 20.213C16.237 21.8957 14.8669 23.209 13.099 23.209H11.0718V16.0519C11.0718 16.0519 11.0718 16.0011 11.0718 15.9847C11.0795 11.9878 12.5194 8.12599 15.1305 5.09977L14.0798 4.23173C11.2533 7.51392 9.69989 11.7023 9.70261 16.0338V24.4886H13.099C15.5369 24.4886 17.6071 22.52 17.6071 20.2096C17.6071 17.8672 15.6084 16.0778 13.223 16.0175Z" fill="#519D73"/>
<g opacity="0.5">
<path opacity="0.5" d="M43.7699 14.8774C43.7699 14.7981 43.7759 14.7189 43.7759 14.6397C43.7759 10.4002 40.4096 6.55172 36.2106 6.55172C32.0117 6.55172 28.5696 10.4002 28.5696 14.6397C28.5696 14.7189 28.5696 14.7981 28.5757 14.8774H43.7699Z" fill="#519D73"/>
</g>
<path d="M21.7346 12.8311C21.3902 13.998 21.1 14.6714 20.945 14.9789H25.5642C25.5556 13.7844 24.815 11.1338 26.2419 8.99728C27.2521 7.4851 28.4869 6.17442 30.9852 5.95569C32.0082 5.83427 33.0321 5.87646 34.0603 5.90488C32.8444 5.45078 31.5487 5.24947 30.2523 5.31327C28.793 5.38706 27.3836 5.86859 26.1842 6.70317C26.0861 6.17184 25.8105 5.8868 25.7252 5.7206C25.553 5.38905 24.9502 4.83964 24.9502 4.83964C24.9502 4.83964 24.9381 4.9912 25.0621 5.35633C25.3455 6.19165 25.4212 6.97702 25.3601 7.36023L23.4811 9.02742C23.4811 9.02742 20.3637 6.96066 19.6438 7.07691C19.6438 7.07691 21.4083 8.58565 21.7355 9.85413C22.1626 11.5136 21.7346 12.8311 21.7346 12.8311Z" fill="white"/>
<path d="M34.6528 8.47981C32.8875 8.16635 33.3103 6.48193 33.3103 6.48193C33.3103 6.48193 35.0205 6.68603 34.6528 8.47981Z" fill="white"/>
<path d="M32.072 8.85786C30.9981 7.42145 32.4595 6.48193 32.4595 6.48193C32.4595 6.48193 33.5669 7.80036 32.072 8.85786Z" fill="white"/>
<path d="M29.5634 7.72284C29.9165 5.96436 31.5914 6.4268 31.5914 6.4268C31.5914 6.4268 31.346 8.13188 29.5634 7.72284Z" fill="white"/>
<path d="M35.6871 4.06637C33.9295 3.47648 33.4799 5.21429 33.4799 5.21429C33.4799 5.21429 35.1351 5.87566 35.6871 4.06637Z" fill="white"/>
<path d="M32.2623 2.46722C31.0963 4.01729 32.6739 5.03862 32.6739 5.03862C32.6739 5.03862 33.8761 3.61686 32.2623 2.46722Z" fill="white"/>
<path d="M28.7272 3.18631C29.3421 5.30561 31.3486 4.56415 31.3486 4.56415C31.3486 4.56415 30.8732 2.50341 28.7272 3.18631Z" fill="white"/>
<path d="M26.5235 4.1077C27.3847 5.91612 29.0708 4.96197 29.0708 4.96197C29.0708 4.96197 28.3474 3.1811 26.5235 4.1077Z" fill="white"/>
<path d="M19.4199 6.94183C17.8698 7.45852 17.4763 5.91878 17.4763 5.91878C17.4763 5.91878 18.9385 5.33922 19.4199 6.94183Z" fill="white"/>
<path d="M19.5663 7.48002C19.3372 9.10071 17.7871 8.77175 17.7871 8.77175C17.7871 8.77175 17.918 7.20273 19.5663 7.48002Z" fill="white"/>
<path d="M20.8967 4.79318C21.5857 6.27781 20.1036 6.841 20.1036 6.841C20.1036 6.841 19.363 5.45454 20.8967 4.79318Z" fill="white"/>
<path d="M22.5372 6.85822C21.7407 7.8916 20.7951 7.05198 20.7951 7.05198C20.7951 7.05198 21.503 6.01601 22.5372 6.85822Z" fill="white"/>
<path d="M24.7315 4.52967C23.4398 4.39188 23.6611 3.15182 23.6611 3.15182C23.6611 3.15182 24.9072 3.21382 24.7315 4.52967Z" fill="white"/>
<path d="M30.4038 10.0859C29.7253 8.63829 31.1703 8.08113 31.1703 8.08113C31.1703 8.08113 31.9005 9.43228 30.4038 10.0859Z" fill="white"/>
<path d="M34.155 11.2251C32.4568 10.4449 33.3266 8.85781 33.3266 8.85781C33.3266 8.85781 34.9972 9.51315 34.155 11.2251Z" fill="white"/>
<path d="M36.928 9.43737C35.1368 9.27633 35.4149 7.55661 35.4149 7.55661C35.4149 7.55661 37.1415 7.61344 36.928 9.43737Z" fill="white"/>
<path d="M28.4439 10.7273C27.9177 8.91892 29.7064 8.52968 29.7064 8.52968C29.7064 8.52968 30.3126 10.2399 28.4439 10.7273Z" fill="white"/>
<path d="M31.6715 12.895C30.4883 11.4233 31.991 10.3804 31.991 10.3804C31.991 10.3804 33.2061 11.7273 31.6715 12.895Z" fill="white"/>
<path d="M17.7871 7.41533C16.8597 8.76389 15.6205 7.77529 15.6205 7.77529C15.6205 7.77529 16.4368 6.43275 17.7871 7.41533Z" fill="white"/>
<path d="M19.4431 5.88426C18.3357 5.19534 19.0797 4.16884 19.0797 4.16884C19.0797 4.16884 20.1794 4.77251 19.4431 5.88426Z" fill="white"/>
<path d="M25.094 4.46684C24.846 3.19148 26.093 3.03819 26.093 3.03819C26.093 3.03819 26.403 4.24811 25.094 4.46684Z" fill="white"/>
<path d="M24.5902 4.98441C24.1536 6.19433 23.0143 5.6897 23.0143 5.6897C23.0143 5.6897 23.3674 4.50561 24.5902 4.98441Z" fill="white"/>
<path d="M24.7504 7.51702C23.4449 7.83651 23.2279 6.55167 23.2279 6.55167C23.2279 6.55167 24.4619 6.17621 24.7504 7.51702Z" fill="white"/>
<path d="M17.1516 8.90858C16.7537 10.5827 15.1623 10.0841 15.1623 10.0841C15.1623 10.0841 15.4534 8.45648 17.1516 8.90858Z" fill="white"/>
<path d="M18.6362 9.38662C19.3372 10.6439 18.0747 11.2355 18.0747 11.2355C18.0747 11.2355 17.3341 10.0695 18.6362 9.38662Z" fill="white"/>
<path d="M20.7314 10.035C21.9766 11.0968 20.8657 12.2284 20.8657 12.2284C20.8657 12.2284 19.6145 11.2811 20.7314 10.035Z" fill="white"/>
<path d="M37.7099 13.1188C35.9187 12.9578 36.1968 11.2381 36.1968 11.2381C36.1968 11.2381 37.9226 11.2949 37.7099 13.1188Z" fill="white"/>
<path d="M20.0097 8.13271C21.0095 9.42444 19.6894 10.3054 19.6894 10.3054C19.6894 10.3054 18.6603 9.11787 20.0097 8.13271Z" fill="white"/>
<path d="M36.8952 6.59123C35.9617 4.99465 34.478 6.00134 34.478 6.00134C34.478 6.00134 35.2866 7.58758 36.8952 6.59123Z" fill="white"/>
<path d="M28.0417 8.48838C27.8437 7.20354 29.0984 7.1002 29.0984 7.1002C29.0984 7.1002 29.3584 8.32132 28.0417 8.48838Z" fill="white"/>
<path d="M30.7035 1.67149C30.2316 2.67732 31.2366 3.06398 31.2366 3.06398C31.2366 3.06398 31.7429 2.12532 30.7035 1.67149Z" fill="white"/>
<path d="M17.186 10.4889C17.5718 11.7367 16.3395 12.0243 16.3395 12.0243C16.3395 12.0243 15.9021 10.8506 17.186 10.4889Z" fill="white"/>
<path d="M19.2408 11.734C20.0296 12.7752 18.9686 13.4658 18.9686 13.4658C18.9686 13.4658 18.1566 12.5108 19.2408 11.734Z" fill="white"/>
<path d="M15.6204 11.0409C15.5963 12.3464 14.3356 12.2336 14.3356 12.2336C14.3356 12.2336 14.2882 10.9806 15.6204 11.0409Z" fill="white"/>
<path d="M22.1446 4.05687C22.7017 5.01878 23.5956 4.41511 23.5956 4.41511C23.5956 4.41511 23.1108 3.46268 22.1446 4.05687Z" fill="white"/>
<path d="M21.6192 6.09095C22.7301 6.10817 22.6698 5.03345 22.6698 5.03345C22.6698 5.03345 21.6055 4.95681 21.6192 6.09095Z" fill="white"/>
<path d="M33.7064 3.5936C34.8173 3.61082 34.7579 2.5361 34.7579 2.5361C34.7579 2.5361 33.6935 2.45946 33.7064 3.5936Z" fill="white"/>
<path d="M36.0591 5.12905C37.033 5.66297 37.4817 4.6847 37.4817 4.6847C37.4817 4.6847 36.5766 4.11978 36.0591 5.12905Z" fill="white"/>
<path d="M37.9286 6.83493C38.3592 7.85971 39.3185 7.37402 39.3185 7.37402C39.3185 7.37402 38.9629 6.37249 37.9286 6.83493Z" fill="white"/>
<path d="M39.3185 9.51151C37.8993 9.58126 37.9286 8.20514 37.9286 8.20514C37.9286 8.20514 39.2858 8.06046 39.3185 9.51151Z" fill="white"/>
</svg>
