<svg width="68" height="125" viewBox="0 0 68 125" fill="none" xmlns="http://www.w3.org/2000/svg">
<rect x="33" y="86" width="2" height="32" fill="#70BB86"/>
<circle cx="34" cy="121" r="4" fill="#70BB86"/>
<mask id="path-3-outside-1" maskUnits="userSpaceOnUse" x="0" y="0" width="68" height="89" fill="black">
<rect fill="white" width="68" height="89"/>
<path fill-rule="evenodd" clip-rule="evenodd" d="M2 33.875C2 16.2998 16.3542 2 34 2C51.6458 2 66 16.2998 66 33.875C66 57.3904 36.4757 85.3398 35.2188 86.5192C34.875 86.8391 34.4375 87 34 87C33.5625 87 33.125 86.8391 32.7813 86.5192C31.5243 85.3398 2 57.3904 2 33.875Z"/>
</mask>
<path fill-rule="evenodd" clip-rule="evenodd" d="M2 33.875C2 16.2998 16.3542 2 34 2C51.6458 2 66 16.2998 66 33.875C66 57.3904 36.4757 85.3398 35.2188 86.5192C34.875 86.8391 34.4375 87 34 87C33.5625 87 33.125 86.8391 32.7813 86.5192C31.5243 85.3398 2 57.3904 2 33.875Z" fill="white"/>
<path d="M35.2188 86.5192L36.5812 87.9835L36.5874 87.9777L35.2188 86.5192ZM32.7813 86.5192L31.4129 87.9778L31.4186 87.9831L32.7813 86.5192ZM34 0C15.2569 0 0 15.1879 0 33.875H4C4 17.4116 17.4514 4 34 4V0ZM68 33.875C68 15.1879 52.7431 0 34 0V4C50.5486 4 64 17.4116 64 33.875H68ZM36.5874 87.9777C37.254 87.3521 45.0439 79.9791 52.6821 69.7714C60.2474 59.6609 68 46.3354 68 33.875H64C64 44.93 56.9904 57.337 49.4794 67.3749C42.0412 77.3155 34.4405 84.507 33.8503 85.0608L36.5874 87.9777ZM34 89C34.9283 89 35.8566 88.6576 36.5812 87.9834L33.8565 85.055C33.8934 85.0207 33.9467 85 34 85V89ZM31.4186 87.9831C32.1432 88.6576 33.0718 89 34 89V85C34.0532 85 34.1068 85.0206 34.1441 85.0553L31.4186 87.9831ZM0 33.875C0 46.3354 7.75259 59.6609 15.318 69.7714C22.9561 79.9791 30.746 87.3521 31.4129 87.9778L34.1498 85.0607C33.5596 84.507 25.9589 77.3156 18.5206 67.3749C11.0096 57.337 4 44.93 4 33.875H0Z" fill="#70BB86" mask="url(#path-3-outside-1)"/>
<path d="M57.3068 30.4296C56.9335 26.415 55.1323 22.4983 52.2339 19.4916C48.8501 15.9776 44.4052 14.0444 39.717 14.0444C35.0289 14.0444 30.5469 15.9757 27.1194 19.483C23.7945 22.8868 21.886 27.4391 21.886 31.9733C21.886 32.1149 21.8907 32.2507 21.8955 32.3818L21.9002 32.5015L23.4202 32.4531V32.3277C23.4202 32.2042 23.4116 32.0873 23.4116 31.9733C23.4116 27.8324 25.1615 23.6677 28.2128 20.5451C31.3478 17.3333 35.4384 15.5644 39.7227 15.5644C44.0071 15.5644 48.0512 17.3323 51.1453 20.5413C53.772 23.2668 55.4202 26.7998 55.7859 30.4211L57.3068 30.4296Z" fill="#519D73"/>
<path d="M56.6066 30.4049C56.6113 30.2482 56.6199 30.0914 56.6199 29.9299C56.6199 21.5293 49.0248 13.9 39.5517 13.9C30.0785 13.9 22.3143 21.5293 22.3143 29.9337C22.3143 30.0914 22.3219 30.2482 22.3276 30.4087L56.6066 30.4049Z" fill="#519D73"/>
<g opacity="0.5">
<path opacity="0.5" d="M56.9373 30.4049C56.9373 30.2653 56.9487 30.1275 56.9487 29.9869C56.9487 22.5343 50.2038 15.7686 41.7928 15.7686C33.3817 15.7686 26.4858 22.5343 26.4858 29.9869C26.4858 30.1275 26.4934 30.2653 26.4981 30.4049H56.9373Z" fill="#CCDE64"/>
</g>
<g opacity="0.5">
<path opacity="0.5" d="M49.3526 30.4049C49.3574 30.2729 49.3631 30.1408 49.3631 30.0078C49.364 22.9343 43.6442 16.5125 36.5099 16.5125C29.3755 16.5125 23.5303 22.9343 23.5303 30.0078C23.5303 30.1408 23.536 30.2729 23.5408 30.4049H49.3526Z" fill="#2C7439"/>
</g>
<g opacity="0.5">
<path opacity="0.5" d="M41.7072 30.3878C41.7072 30.308 41.7129 30.2283 41.7129 30.1475C41.7129 25.8622 38.3101 21.9749 34.0694 21.9749C29.8287 21.9749 26.3452 25.8698 26.3452 30.1513C26.3452 30.2321 26.3452 30.3118 26.3518 30.3916L41.7072 30.3878Z" fill="#74C48C"/>
</g>
<path d="M8.79999 36.1942C8.79999 33.5495 11.0201 31.4092 13.7579 31.4092C16.4957 31.4092 18.7158 33.5495 18.7158 36.1942C18.7158 38.8845 16.4948 41.0695 13.7579 41.0695C11.021 41.0695 8.79999 38.8845 8.79999 36.1942ZM17.2044 36.1942C17.2044 34.337 15.6617 32.8246 13.7579 32.8246C11.8542 32.8246 10.3114 34.337 10.3114 36.1942C10.3114 36.6468 10.4005 37.095 10.5738 37.5131C10.747 37.9313 11.0008 38.3112 11.3209 38.6313C11.6409 38.9513 12.0208 39.2052 12.439 39.3784C12.8571 39.5516 13.3053 39.6407 13.7579 39.6407C14.2105 39.6407 14.6587 39.5516 15.0768 39.3784C15.495 39.2052 15.8749 38.9513 16.195 38.6313C16.515 38.3112 16.7689 37.9313 16.9421 37.5131C17.1153 37.095 17.2044 36.6468 17.2044 36.1942Z" fill="#519D73"/>
<path d="M37.5027 35.894C37.3621 34.147 35.9143 32.7942 34.0561 32.7942C32.1049 32.7942 30.5944 34.2724 30.5944 36.1942C30.5944 38.0828 32.1049 39.5296 34.0561 39.5296H38.1543V40.9146H34.0561C31.3658 40.9146 29.083 38.7591 29.083 36.1942C29.083 33.6122 31.363 31.4092 34.0561 31.4092C36.7493 31.4092 39.0302 33.5941 39.0302 36.1942V37.28H31.4598V35.894H37.5027Z" fill="#519D73"/>
<path d="M43.8057 31.5696H40.059V46.9592H41.5742V32.9831H43.8104C45.7617 32.9831 47.2721 34.2428 47.2721 36.194C47.2721 38.019 45.7617 39.499 43.8104 39.499H42.4358V40.9145H43.8057C46.496 40.9145 48.7788 38.7115 48.7788 36.194C48.7788 33.5493 46.4989 31.5667 43.8057 31.5667" fill="#519D73"/>
<path d="M51.0778 31.5667H49.5663V40.9145H51.0778V31.5667Z" fill="#519D73"/>
<path d="M52.024 40.9146V36.3662C52.024 33.6749 54.2887 31.4092 56.9971 31.4092H58.1V32.7942H56.9943C55.0582 32.7942 53.5316 34.3513 53.5316 36.3662V40.9146H52.024Z" fill="#519D73"/>
<path d="M23.3869 31.5696V31.562H21.8802V32.987H23.2501C25.2004 32.987 26.7118 34.1507 26.7118 36.1979C26.7118 38.0542 25.2004 39.5029 23.2501 39.5029H21.0138V31.6076C21.0138 31.6076 21.0138 31.5516 21.0138 31.5335C21.0223 27.1243 22.6107 22.8642 25.4911 19.5258L24.3321 18.5682C21.214 22.189 19.5004 26.8094 19.5034 31.5877V40.9145H23.2501C25.9395 40.9145 28.2232 38.7429 28.2232 36.1941C28.2232 33.6102 26.0183 31.6361 23.3869 31.5696Z" fill="#519D73"/>
<g opacity="0.5">
<path opacity="0.5" d="M57.0845 30.3119C57.0845 30.2245 57.0912 30.1371 57.0912 30.0497C57.0912 25.3729 53.3777 21.1275 48.7456 21.1275C44.1135 21.1275 40.3165 25.3729 40.3165 30.0497C40.3165 30.1371 40.3165 30.2245 40.3231 30.3119H57.0845Z" fill="#519D73"/>
</g>
<path d="M32.7764 28.0546C32.3964 29.3418 32.0763 30.0847 31.9053 30.4239H37.0009C36.9914 29.1062 36.1745 26.1822 37.7486 23.8253C38.8629 22.1572 40.2252 20.7113 42.981 20.47C44.1096 20.3361 45.2391 20.3826 46.3734 20.414C45.0321 19.913 43.6027 19.6909 42.1726 19.7613C40.5628 19.8427 39.008 20.3739 37.6849 21.2946C37.5766 20.7084 37.2726 20.394 37.1786 20.2107C36.9886 19.8449 36.3236 19.2388 36.3236 19.2388C36.3236 19.2388 36.3103 19.406 36.4471 19.8088C36.7596 20.7303 36.8432 21.5967 36.7758 22.0194L34.7029 23.8586C34.7029 23.8586 31.264 21.5786 30.4698 21.7069C30.4698 21.7069 32.4164 23.3712 32.7773 24.7705C33.2485 26.6011 32.7764 28.0546 32.7764 28.0546Z" fill="white"/>
<path d="M47.0271 23.2545C45.0796 22.9087 45.5461 21.0505 45.5461 21.0505C45.5461 21.0505 47.4327 21.2757 47.0271 23.2545Z" fill="white"/>
<path d="M44.18 23.6715C42.9954 22.087 44.6075 21.0505 44.6075 21.0505C44.6075 21.0505 45.8291 22.505 44.18 23.6715Z" fill="white"/>
<path d="M41.4127 22.4194C41.8022 20.4795 43.6499 20.9897 43.6499 20.9897C43.6499 20.9897 43.3792 22.8706 41.4127 22.4194Z" fill="white"/>
<path d="M48.1681 18.3858C46.2292 17.7351 45.7333 19.6521 45.7333 19.6521C45.7333 19.6521 47.5591 20.3817 48.1681 18.3858Z" fill="white"/>
<path d="M44.3899 16.6217C43.1037 18.3317 44.844 19.4583 44.844 19.4583C44.844 19.4583 46.1702 17.8899 44.3899 16.6217Z" fill="white"/>
<path d="M40.4903 17.415C41.1686 19.7529 43.382 18.9349 43.382 18.9349C43.382 18.9349 42.8576 16.6616 40.4903 17.415Z" fill="white"/>
<path d="M38.0593 18.4314C39.0092 20.4264 40.8693 19.3738 40.8693 19.3738C40.8693 19.3738 40.0713 17.4092 38.0593 18.4314Z" fill="white"/>
<path d="M30.223 21.5578C28.513 22.1278 28.0789 20.4293 28.0789 20.4293C28.0789 20.4293 29.6919 19.7899 30.223 21.5578Z" fill="white"/>
<path d="M30.3844 22.1516C30.1317 23.9395 28.4218 23.5766 28.4218 23.5766C28.4218 23.5766 28.5661 21.8457 30.3844 22.1516Z" fill="white"/>
<path d="M31.8521 19.1876C32.6121 20.8254 30.9772 21.4467 30.9772 21.4467C30.9772 21.4467 30.1602 19.9172 31.8521 19.1876Z" fill="white"/>
<path d="M33.6618 21.4656C32.7831 22.6056 31.74 21.6794 31.74 21.6794C31.74 21.6794 32.5209 20.5366 33.6618 21.4656Z" fill="white"/>
<path d="M36.0824 18.8969C34.6574 18.7449 34.9016 17.377 34.9016 17.377C34.9016 17.377 36.2762 17.4454 36.0824 18.8969Z" fill="white"/>
<path d="M42.3398 25.0262C41.5912 23.4293 43.1853 22.8147 43.1853 22.8147C43.1853 22.8147 43.9909 24.3052 42.3398 25.0262Z" fill="white"/>
<path d="M46.4779 26.283C44.6046 25.4223 45.564 23.6715 45.564 23.6715C45.564 23.6715 47.407 24.3944 46.4779 26.283Z" fill="white"/>
<path d="M49.5369 24.3108C47.561 24.1332 47.8678 22.2361 47.8678 22.2361C47.8678 22.2361 49.7725 22.2988 49.5369 24.3108Z" fill="white"/>
<path d="M40.1778 25.7338C39.5974 23.7389 41.5705 23.3095 41.5705 23.3095C41.5705 23.3095 42.2392 25.1962 40.1778 25.7338Z" fill="white"/>
<path d="M43.7382 28.125C42.433 26.5015 44.0907 25.3511 44.0907 25.3511C44.0907 25.3511 45.4311 26.8368 43.7382 28.125Z" fill="white"/>
<path d="M28.4218 22.0802C27.3987 23.5679 26.0317 22.4773 26.0317 22.4773C26.0317 22.4773 26.9323 20.9963 28.4218 22.0802Z" fill="white"/>
<path d="M30.2486 20.3913C29.0269 19.6313 29.8477 18.4989 29.8477 18.4989C29.8477 18.4989 31.0608 19.1648 30.2486 20.3913Z" fill="white"/>
<path d="M36.4824 18.8276C36.2088 17.4207 37.5844 17.2516 37.5844 17.2516C37.5844 17.2516 37.9264 18.5863 36.4824 18.8276Z" fill="white"/>
<path d="M35.9266 19.3985C35.445 20.7333 34.1882 20.1766 34.1882 20.1766C34.1882 20.1766 34.5777 18.8704 35.9266 19.3985Z" fill="white"/>
<path d="M36.1033 22.1924C34.6632 22.5448 34.4238 21.1275 34.4238 21.1275C34.4238 21.1275 35.7851 20.7133 36.1033 22.1924Z" fill="white"/>
<path d="M27.7208 23.7275C27.2819 25.5743 25.5263 25.0243 25.5263 25.0243C25.5263 25.0243 25.8474 23.2288 27.7208 23.7275Z" fill="white"/>
<path d="M29.3585 24.2548C30.1317 25.6418 28.7391 26.2944 28.7391 26.2944C28.7391 26.2944 27.9221 25.0082 29.3585 24.2548Z" fill="white"/>
<path d="M31.6697 24.9701C33.0434 26.1414 31.8179 27.3897 31.8179 27.3897C31.8179 27.3897 30.4376 26.3447 31.6697 24.9701Z" fill="white"/>
<path d="M50.3995 28.372C48.4235 28.1943 48.7304 26.2972 48.7304 26.2972C48.7304 26.2972 50.6341 26.3599 50.3995 28.372Z" fill="white"/>
<path d="M30.8736 22.8716C31.9765 24.2965 30.5202 25.2684 30.5202 25.2684C30.5202 25.2684 29.385 23.9584 30.8736 22.8716Z" fill="white"/>
<path d="M49.5008 21.1711C48.471 19.4098 46.8342 20.5204 46.8342 20.5204C46.8342 20.5204 47.7262 22.2702 49.5008 21.1711Z" fill="white"/>
<path d="M39.7341 23.2639C39.5156 21.8465 40.8997 21.7325 40.8997 21.7325C40.8997 21.7325 41.1866 23.0796 39.7341 23.2639Z" fill="white"/>
<path d="M42.6704 15.7439C42.1499 16.8535 43.2585 17.28 43.2585 17.28C43.2585 17.28 43.8171 16.2445 42.6704 15.7439Z" fill="white"/>
<path d="M27.7586 25.4708C28.1842 26.8473 26.8248 27.1646 26.8248 27.1646C26.8248 27.1646 26.3422 25.8698 27.7586 25.4708Z" fill="white"/>
<path d="M30.0253 26.8444C30.8955 27.9929 29.7251 28.7548 29.7251 28.7548C29.7251 28.7548 28.8293 27.7012 30.0253 26.8444Z" fill="white"/>
<path d="M26.0316 26.0797C26.005 27.5199 24.6142 27.3954 24.6142 27.3954C24.6142 27.3954 24.562 26.0132 26.0316 26.0797Z" fill="white"/>
<path d="M33.2287 18.3753C33.8433 19.4365 34.8294 18.7705 34.8294 18.7705C34.8294 18.7705 34.2946 17.7199 33.2287 18.3753Z" fill="white"/>
<path d="M32.6491 20.6192C33.8746 20.6382 33.8081 19.4527 33.8081 19.4527C33.8081 19.4527 32.6339 19.3681 32.6491 20.6192Z" fill="white"/>
<path d="M45.9831 17.8643C47.2086 17.8833 47.143 16.6977 47.143 16.6977C47.143 16.6977 45.9689 16.6132 45.9831 17.8643Z" fill="white"/>
<path d="M48.5784 19.5581C49.6528 20.1471 50.1477 19.0679 50.1477 19.0679C50.1477 19.0679 49.1493 18.4447 48.5784 19.5581Z" fill="white"/>
<path d="M50.6408 21.44C51.1158 22.5704 52.1741 22.0347 52.1741 22.0347C52.1741 22.0347 51.7817 20.9298 50.6408 21.44Z" fill="white"/>
<path d="M52.1741 24.3926C50.6085 24.4696 50.6408 22.9515 50.6408 22.9515C50.6408 22.9515 52.138 22.7919 52.1741 24.3926Z" fill="white"/>
</svg>
