<svg width="14" height="15" viewBox="0 0 14 15" fill="none" xmlns="http://www.w3.org/2000/svg">
<path d="M4.42673 7.37357C4.5991 7.33748 4.77919 7.2584 4.94909 7.13437C5.4376 6.77704 5.65441 6.1903 5.43286 5.8232C5.19197 5.42388 4.53302 5.45073 4.02665 5.90518C3.54243 6.32796 3.43912 6.76971 3.43912 7.23399C3.43912 7.56203 3.54288 8.1478 4.17672 8.65649C4.476 8.42266 4.83278 8.2303 5.23777 8.0912L5.24314 8.08922C4.93195 7.95809 4.52632 7.69927 4.42673 7.37357ZM4.34858 6.24445C4.34858 6.10728 4.45666 5.99698 4.58996 5.99698C4.72313 5.99698 4.83133 6.1078 4.83133 6.24497C4.83133 6.38214 4.72313 6.49244 4.58996 6.49244C4.45669 6.49244 4.34858 6.38162 4.34858 6.24445Z" fill="#74C48C"/>
<path d="M10.0865 7.2346C10.085 6.76981 9.9822 6.32804 9.49755 5.90524C8.99157 5.45123 8.33217 5.4234 8.09125 5.82326C7.87015 6.19037 8.08642 6.77717 8.57493 7.13449C8.74489 7.25852 8.92498 7.33757 9.09729 7.3737C9.03743 7.56946 8.85544 7.76864 8.57789 7.93657C8.19622 8.16694 7.99005 8.19543 5.54811 9.01546C4.64444 9.32595 4.10669 9.94298 4.10669 10.666C4.10669 11.181 4.36686 11.5784 4.72841 11.8694C4.95581 11.6326 5.2397 11.4271 5.57134 11.2626C5.18949 11.0673 5.07167 10.9194 5.07167 10.666C5.07167 10.2478 5.89825 10.0087 6.27956 9.8815V10.9399L7.24506 10.5044V9.88199C7.62697 10.0099 8.45144 10.2487 8.45144 10.666C8.45144 11.3603 6.48551 11.7697 5.64906 12.3532C5.2431 12.6378 5.02481 12.9996 5.02481 13.4247C5.02481 13.6688 5.05287 13.9715 5.47669 14.2722C5.59687 14.3693 5.76384 14.2275 5.68578 14.0911C5.40573 13.5243 5.7031 13.2412 6.2805 12.9961V13.8153C6.2805 14.0847 6.49677 14.3034 6.76324 14.3034C7.02972 14.3034 7.24599 14.0847 7.24599 13.8153V12.9966C7.80064 13.2319 8.14972 13.5643 7.83929 14.0911C7.76235 14.2249 7.92618 14.3705 8.04783 14.2722C8.45817 13.9578 8.49051 13.6883 8.49051 13.4311C8.49051 13.0352 8.2762 12.651 7.8697 12.3566C8.69136 12.0564 9.41835 11.5511 9.41835 10.667C9.41835 10.0563 9.03463 9.52122 8.3713 9.18242C8.68117 9.06965 8.83709 8.99398 9.04419 8.86904C9.9513 8.32078 10.0865 7.60952 10.0865 7.2346ZM8.93467 6.49253C8.80137 6.49253 8.69329 6.38171 8.69329 6.24453C8.69329 6.10735 8.80137 5.99653 8.93467 5.99653C9.06785 5.99653 9.17604 6.10735 9.17604 6.24453C9.17604 6.38171 9.06788 6.49253 8.93467 6.49253Z" fill="#74C48C"/>
<path d="M13.517 1.12393H10.2109C9.56232 1.12393 9.07562 1.41385 8.65693 1.8373C8.20206 2.29729 7.96554 3.31984 7.24127 3.31984V1.96395C7.52869 1.79483 7.72402 1.48351 7.72402 1.12299C7.72402 0.58375 7.29178 0.146606 6.75852 0.146606C6.22527 0.146606 5.79303 0.58375 5.79303 1.12299C5.79303 1.48348 5.98836 1.7948 6.27578 1.96395V7.7821C6.57372 7.68599 6.90072 7.58009 7.24127 7.46948V5.02411C7.45072 4.91784 7.61971 4.74602 7.72335 4.53339C7.89126 4.82361 8.21048 5.02945 8.56629 5.02945C8.92717 5.02945 9.23809 4.82682 9.40374 4.53027C9.96927 5.10222 11.0205 5.11323 11.586 4.54132L10.7656 3.7117L11.142 3.86936C11.8809 4.1789 12.7281 3.82402 13.0342 3.07672L11.8688 2.58853C12.9978 2.5885 13.517 1.87205 13.517 1.12393Z" fill="#74C48C"/>
<path d="M4.86005 1.83583C4.44136 1.41237 3.95466 1.12244 3.30609 1.12244H0C0 1.87055 0.519164 2.58705 1.64819 2.58705L0.482747 3.07526C0.788869 3.82258 1.63606 4.17744 2.37502 3.86792L2.75135 3.71026L1.93099 4.5399C2.49652 5.11186 3.54771 5.10085 4.11324 4.52886C4.27889 4.82544 4.58981 5.02808 4.95069 5.02808C4.95425 5.02808 4.95781 5.02805 4.96137 5.02802C5.43307 5.02258 5.79362 4.59168 5.79362 4.11464V3.13244C5.41313 2.81672 5.1952 2.17476 4.86005 1.83583Z" fill="#74C48C"/>
</svg>
