<svg width="20" height="20" viewBox="0 0 20 20" fill="none" xmlns="http://www.w3.org/2000/svg">
<path d="M17.7173 0.615234H4.8999C3.99124 0.615234 3.25195 1.35452 3.25195 2.26318V3.94775H15.8478C17.1816 3.94775 18.2666 5.03277 18.2666 6.36658V13.6139C18.2666 14.9477 17.1816 16.0327 15.8478 16.0327H3.25195V17.7173C3.25195 18.6259 3.99124 19.3652 4.8999 19.3652H17.7173C18.6259 19.3652 19.3652 18.6259 19.3652 17.7173V2.26318C19.3652 1.35452 18.6259 0.615234 17.7173 0.615234Z" fill="white"/>
<path d="M8.85498 8.34229H8.48877V11.6382H8.85498C9.35978 11.6382 9.77051 11.2275 9.77051 10.7227V9.25781C9.77051 8.75301 9.35978 8.34229 8.85498 8.34229Z" fill="white"/>
<path d="M4.46045 8.34229H3.91113V9.80713H4.46045C4.86431 9.80713 5.19287 9.47857 5.19287 9.07471C5.19287 8.67085 4.86431 8.34229 4.46045 8.34229Z" fill="white"/>
<path d="M17.168 13.6139V6.36658C17.168 5.63862 16.5757 5.04639 15.8478 5.04639H1.93542C1.20747 5.04639 0.615234 5.63862 0.615234 6.36658V13.6139C0.615234 14.3419 1.20747 14.9341 1.93542 14.9341H15.8478C16.5757 14.9341 17.168 14.3419 17.168 13.6139ZM4.46045 10.9058H3.91113V12.1875C3.91113 12.4909 3.6652 12.7368 3.36182 12.7368C3.05843 12.7368 2.8125 12.4909 2.8125 12.1875V7.79297C2.8125 7.48959 3.05843 7.24365 3.36182 7.24365H4.46045C5.47005 7.24365 6.2915 8.06511 6.2915 9.07471C6.2915 10.0843 5.47005 10.9058 4.46045 10.9058ZM10.8691 10.7227C10.8691 11.8333 9.96563 12.7368 8.85498 12.7368H7.93945C7.63607 12.7368 7.39014 12.4909 7.39014 12.1875V7.79297C7.39014 7.48959 7.63607 7.24365 7.93945 7.24365H8.85498C9.96563 7.24365 10.8691 8.14716 10.8691 9.25781V10.7227ZM14.4214 8.34229H13.0664V9.44092H14.165C14.4684 9.44092 14.7144 9.68685 14.7144 9.99023C14.7144 10.2936 14.4684 10.5396 14.165 10.5396H13.0664V12.1875C13.0664 12.4909 12.8205 12.7368 12.5171 12.7368C12.2137 12.7368 11.9678 12.4909 11.9678 12.1875V7.79297C11.9678 7.48959 12.2137 7.24365 12.5171 7.24365H14.4214C14.7248 7.24365 14.9707 7.48959 14.9707 7.79297C14.9707 8.09635 14.7248 8.34229 14.4214 8.34229Z" fill="white"/>
</svg>
