<svg width="14" height="15" viewBox="0 0 14 15" fill="none" xmlns="http://www.w3.org/2000/svg">
<path d="M13.9693 11.1163C13.9298 10.9957 13.6778 10.8179 13.2137 10.5835C13.088 10.5096 12.9089 10.4092 12.6771 10.2818C12.4451 10.1544 12.2345 10.037 12.0457 9.92977C11.8565 9.82253 11.6793 9.71863 11.5137 9.61822C11.4872 9.59811 11.4043 9.53955 11.2652 9.44213C11.1258 9.345 11.0083 9.27291 10.912 9.22589C10.8159 9.17915 10.7214 9.15563 10.6286 9.15563C10.4961 9.15563 10.3305 9.25121 10.1317 9.44213C9.93292 9.6333 9.75057 9.84095 9.58494 10.0657C9.41927 10.2904 9.24357 10.498 9.05816 10.6891C8.87247 10.8802 8.7199 10.9757 8.60072 10.9757C8.54089 10.9757 8.46629 10.9588 8.37689 10.9255C8.28753 10.892 8.21955 10.8633 8.17288 10.8402C8.12664 10.8166 8.04727 10.7698 7.9345 10.6992C7.82153 10.6288 7.7587 10.5902 7.74547 10.5835C6.83738 10.0739 6.05857 9.4907 5.40889 8.83398C4.75942 8.17687 4.18263 7.38934 3.67887 6.47091C3.67226 6.4575 3.63405 6.39379 3.56451 6.27989C3.49485 6.16589 3.44843 6.08555 3.42524 6.0385C3.40204 5.99162 3.37387 5.92288 3.34078 5.8324C3.3077 5.74192 3.29109 5.66656 3.29109 5.60616C3.29109 5.48557 3.38557 5.33131 3.5745 5.1436C3.7634 4.95599 3.96894 4.77827 4.19092 4.61081C4.41307 4.44335 4.61841 4.25894 4.80737 4.05791C4.99627 3.85678 5.09072 3.68928 5.09072 3.55524C5.09072 3.46145 5.06752 3.36583 5.02117 3.26866C4.97478 3.17128 4.90353 3.05246 4.80737 2.91162C4.71119 2.77085 4.6532 2.68713 4.63328 2.66019C4.53396 2.49273 4.43132 2.31343 4.32514 2.12237C4.21896 1.93134 4.10305 1.71841 3.97705 1.48382C3.85116 1.24934 3.7518 1.06828 3.6788 0.940927C3.44693 0.47178 3.27131 0.216938 3.15196 0.176859C3.10553 0.156749 3.03588 0.146606 2.94318 0.146606C2.7641 0.146606 2.53049 0.180064 2.24216 0.247191C1.95374 0.314212 1.72678 0.384508 1.56104 0.458361C1.2296 0.59906 0.87831 1.00795 0.507066 1.68488C0.16901 2.31487 0 2.93842 0 3.55506C0 3.73591 0.011597 3.91186 0.0347911 4.08295C0.0579852 4.25387 0.0994281 4.44662 0.159155 4.66117C0.218777 4.87565 0.266871 5.03498 0.30323 5.13874C0.339623 5.24256 0.407568 5.42855 0.507031 5.69677C0.606355 5.96493 0.666081 6.12908 0.685967 6.18941C0.917942 6.84638 1.19303 7.43287 1.51117 7.94907C2.0346 8.80707 2.74892 9.69377 3.65369 10.6088C4.55851 11.5238 5.43515 12.2461 6.28365 12.7757C6.79402 13.0974 7.37419 13.3755 8.02373 13.6103C8.08342 13.6303 8.24574 13.6905 8.5108 13.7913C8.77597 13.8919 8.95995 13.9606 9.06262 13.9974C9.16532 14.0344 9.32291 14.083 9.53482 14.1434C9.74719 14.2038 9.93762 14.2457 10.1066 14.2694C10.2757 14.2925 10.4498 14.3044 10.6286 14.3044C11.2384 14.3044 11.855 14.1334 12.4781 13.7916C13.1474 13.4163 13.5516 13.061 13.6908 12.7256C13.764 12.5581 13.8334 12.3285 13.8996 12.0369C13.9661 11.7453 13.9991 11.5091 13.9991 11.3281C13.9993 11.2339 13.9893 11.1637 13.9693 11.1163Z" fill="#74C48C"/>
</svg>
