<svg width="16" height="17" viewBox="0 0 16 17" fill="none" xmlns="http://www.w3.org/2000/svg">
<path d="M11.4351 10.1763H10.7124L10.4563 9.92654C11.3528 8.8719 11.8925 7.50273 11.8925 6.01328C11.8925 2.6921 9.23042 0 5.94626 0C2.66209 0 0 2.6921 0 6.01328C0 9.33447 2.66209 12.0266 5.94626 12.0266C7.4191 12.0266 8.77301 11.4807 9.81589 10.5741L10.0629 10.8332V11.564L14.6369 16.1804L16 14.8019L11.4351 10.1763ZM5.94626 10.1763C3.66838 10.1763 1.82962 8.31683 1.82962 6.01328C1.82962 3.70973 3.66838 1.85024 5.94626 1.85024C8.22413 1.85024 10.0629 3.70973 10.0629 6.01328C10.0629 8.31683 8.22413 10.1763 5.94626 10.1763Z" fill="white"/>
</svg>
