<svg width="16" height="20" viewBox="0 0 16 20" fill="none" xmlns="http://www.w3.org/2000/svg">
<path d="M3.17648 6.58838C1.42494 6.58838 0 8.01332 0 9.76486C0 11.5164 1.42494 12.9413 3.17648 12.9413C4.92802 12.9413 6.35296 11.5164 6.35296 9.76486C6.35296 8.01332 4.92802 6.58838 3.17648 6.58838ZM3.17648 11.5296C2.20329 11.5296 1.41178 10.738 1.41178 9.76486C1.41178 8.79171 2.20333 8.00016 3.17648 8.00016C4.14962 8.00016 4.94117 8.79171 4.94117 9.76486C4.94117 10.738 4.14966 11.5296 3.17648 11.5296Z" fill="white"/>
<path d="M3.17648 6.58838C1.42494 6.58838 0 8.01332 0 9.76486C0 11.5164 1.42494 12.9413 3.17648 12.9413C4.92802 12.9413 6.35296 11.5164 6.35296 9.76486C6.35296 8.01332 4.92802 6.58838 3.17648 6.58838ZM3.17648 11.5296C2.20329 11.5296 1.41178 10.738 1.41178 9.76486C1.41178 8.79171 2.20333 8.00016 3.17648 8.00016C4.14962 8.00016 4.94117 8.79171 4.94117 9.76486C4.94117 10.738 4.14966 11.5296 3.17648 11.5296Z" fill="white"/>
<path d="M12.8235 0C11.0719 0 9.64697 1.42494 9.64697 3.17648C9.64697 4.92802 11.0719 6.35296 12.8235 6.35296C14.575 6.35296 15.9999 4.92802 15.9999 3.17648C15.9999 1.42494 14.575 0 12.8235 0ZM12.8235 4.94117C11.8503 4.94117 11.0588 4.14966 11.0588 3.17648C11.0588 2.20329 11.8503 1.41178 12.8235 1.41178C13.7966 1.41178 14.5881 2.20329 14.5881 3.17648C14.5881 4.14962 13.7966 4.94117 12.8235 4.94117Z" fill="white"/>
<path d="M12.8235 0C11.0719 0 9.64697 1.42494 9.64697 3.17648C9.64697 4.92802 11.0719 6.35296 12.8235 6.35296C14.575 6.35296 15.9999 4.92802 15.9999 3.17648C15.9999 1.42494 14.575 0 12.8235 0ZM12.8235 4.94117C11.8503 4.94117 11.0588 4.14966 11.0588 3.17648C11.0588 2.20329 11.8503 1.41178 12.8235 1.41178C13.7966 1.41178 14.5881 2.20329 14.5881 3.17648C14.5881 4.14962 13.7966 4.94117 12.8235 4.94117Z" fill="white"/>
<path d="M12.8235 12.9409C11.0719 12.9409 9.64697 14.3659 9.64697 16.1174C9.64697 17.8689 11.0719 19.2938 12.8235 19.2938C14.575 19.2938 15.9999 17.8689 15.9999 16.1174C15.9999 14.3658 14.575 12.9409 12.8235 12.9409ZM12.8235 17.8821C11.8503 17.8821 11.0588 17.0906 11.0588 16.1174C11.0588 15.1442 11.8503 14.3527 12.8235 14.3527C13.7966 14.3527 14.5881 15.1442 14.5881 16.1174C14.5881 17.0905 13.7966 17.8821 12.8235 17.8821Z" fill="white"/>
<path d="M12.8235 12.9409C11.0719 12.9409 9.64697 14.3659 9.64697 16.1174C9.64697 17.8689 11.0719 19.2938 12.8235 19.2938C14.575 19.2938 15.9999 17.8689 15.9999 16.1174C15.9999 14.3658 14.575 12.9409 12.8235 12.9409ZM12.8235 17.8821C11.8503 17.8821 11.0588 17.0906 11.0588 16.1174C11.0588 15.1442 11.8503 14.3527 12.8235 14.3527C13.7966 14.3527 14.5881 15.1442 14.5881 16.1174C14.5881 17.0905 13.7966 17.8821 12.8235 17.8821Z" fill="white"/>
<path d="M10.6999 4.09075L4.77051 7.92578L5.53725 9.11126L11.4667 5.27623L10.6999 4.09075Z" fill="white"/>
<path d="M10.6999 4.09075L4.77051 7.92578L5.53725 9.11126L11.4667 5.27623L10.6999 4.09075Z" fill="white"/>
<path d="M5.53687 10.4906L4.76831 11.6748L10.5332 15.4163L11.3017 14.2322L5.53687 10.4906Z" fill="white"/>
<path d="M5.53687 10.4906L4.76831 11.6748L10.5332 15.4163L11.3017 14.2322L5.53687 10.4906Z" fill="white"/>
</svg>
