<svg width="16" height="14" viewBox="0 0 16 14" fill="none" xmlns="http://www.w3.org/2000/svg">
<path d="M5.00062 13.5034C11.0387 13.5034 14.3406 8.50105 14.3406 4.1634C14.3406 4.02131 14.3377 3.87983 14.3313 3.73908C14.9722 3.2757 15.5293 2.69745 15.9688 2.03925C15.3806 2.30072 14.7476 2.47663 14.0836 2.5561C14.7614 2.1496 15.2818 1.50678 15.5271 0.740418C14.8929 1.1164 14.1905 1.38959 13.4427 1.53717C12.8437 0.89911 11.9907 0.500061 11.0464 0.500061C9.23366 0.500061 7.76356 1.97016 7.76356 3.78229C7.76356 4.03999 7.79237 4.29047 7.84865 4.53083C5.12037 4.3935 2.70106 3.08735 1.08216 1.10101C0.800295 1.58612 0.637697 2.14972 0.637697 2.75104C0.637697 3.88984 1.21729 4.89533 2.09851 5.48347C1.55994 5.46687 1.05408 5.31904 0.611818 5.07295C0.611329 5.08674 0.611329 5.10017 0.611329 5.11482C0.611329 6.70466 1.7428 8.03206 3.245 8.33284C2.96912 8.40791 2.67884 8.44832 2.3794 8.44832C2.16822 8.44832 1.96241 8.42757 1.76233 8.38912C2.1803 9.69344 3.39222 10.6425 4.82899 10.6691C3.70545 11.5498 2.29004 12.0743 0.751833 12.0743C0.487184 12.0743 0.225708 12.0592 -0.03125 12.0289C1.42151 12.96 3.14673 13.5035 5.00074 13.5035" fill="#1DA1F2"/>
</svg>
