<svg width="16" height="16" viewBox="0 0 16 16" fill="none" xmlns="http://www.w3.org/2000/svg">
<g clip-path="url(#clip0)">
<path d="M15.4365 9.26202C15.9138 5.24402 15.2071 2.70735 13.9325 1.56002L13.9331 1.55935C11.8758 -0.399984 4.92781 -0.689984 2.46648 1.64735C1.36114 2.79068 0.971809 4.46868 0.929142 6.54602C0.886475 8.62402 0.835809 12.5167 4.46314 13.5727H4.46648L4.46314 15.1854C4.46314 15.1854 4.43848 15.8387 4.85581 15.97C5.33314 16.1247 5.54914 15.8214 7.03381 14.048C9.51648 14.2634 11.4231 13.77 11.6398 13.698C12.1411 13.53 14.9778 13.1547 15.4365 9.26202ZM7.27848 12.9134C7.27848 12.9134 5.70714 14.8727 5.21848 15.3814C5.05848 15.5467 4.88314 15.5314 4.88581 15.2034C4.88581 14.988 4.89781 12.526 4.89781 12.526C1.82248 11.6447 2.00381 8.33002 2.03714 6.59602C2.07048 4.86135 2.38781 3.44068 3.32381 2.48402C5.48314 0.45935 11.5745 0.912016 13.1265 2.37068C15.0238 4.05268 14.3485 8.80468 14.3525 8.96668C13.9625 12.216 11.6638 12.422 11.2411 12.5627C11.0605 12.6227 9.38381 13.054 7.27848 12.9134Z" fill="#8E24AA"/>
<path d="M8.14782 2.86475C7.89116 2.86475 7.89116 3.26475 8.14782 3.26808C10.1392 3.28341 11.7792 4.67141 11.7972 7.21741C11.7972 7.48608 12.1905 7.48275 12.1872 7.21408H12.1865C12.1652 4.47075 10.3745 2.88008 8.14782 2.86475Z" fill="#8E24AA"/>
<path d="M10.7675 6.79536C10.7615 7.06069 11.1541 7.07336 11.1575 6.80469C11.1901 5.29202 10.2575 4.04602 8.50479 3.91469C8.24812 3.89602 8.22145 4.29936 8.47746 4.31802C9.99746 4.43336 10.7981 5.47069 10.7675 6.79536Z" fill="#8E24AA"/>
<path d="M10.3471 8.51591C10.0177 8.32524 9.68239 8.44391 9.54373 8.63124L9.25373 9.00657C9.10639 9.19724 8.83106 9.17191 8.83106 9.17191C6.82173 8.64057 6.2844 6.53791 6.2844 6.53791C6.2844 6.53791 6.25973 6.25324 6.44373 6.10057L6.8064 5.80057C6.98773 5.65657 7.1024 5.30991 6.91773 4.96924C6.4244 4.07791 6.09307 3.77057 5.9244 3.53457C5.74707 3.31257 5.4804 3.26257 5.20307 3.41257H5.19707C4.6204 3.74991 3.98907 4.38124 4.19107 5.03124C4.53573 5.71657 5.16907 7.90124 7.18773 9.55191C8.13639 10.3326 9.63773 11.1326 10.2751 11.3172L10.2811 11.3266C10.9091 11.5359 11.5197 10.8799 11.8457 10.2859V10.2812C11.9904 9.99391 11.9424 9.72191 11.7311 9.54391C11.3564 9.17857 10.7911 8.77524 10.3471 8.51591Z" fill="#8E24AA"/>
<path d="M8.7794 5.40278C9.42007 5.44012 9.73074 5.77479 9.76408 6.46212C9.77608 6.73079 10.1661 6.71212 10.1541 6.44346C10.1114 5.54612 9.64341 5.04612 8.80073 4.99945C8.54406 4.98412 8.52006 5.38745 8.7794 5.40278Z" fill="#8E24AA"/>
</g>
<defs>
<clipPath id="clip0">
<rect width="16" height="16" fill="white"/>
</clipPath>
</defs>
</svg>
