<svg width="84" height="26" viewBox="0 0 84 26" fill="none" xmlns="http://www.w3.org/2000/svg">
<path d="M13.0624 18.3991C12.6574 16.652 11.6645 15.3464 10.8229 13.8061C8.93831 10.3638 8.95583 5.92088 10.9481 2.50977C5.7044 3.08206 1.62183 7.54464 1.62183 12.9686C1.62183 18.3548 5.64832 22.7917 10.8409 23.4138C10.8845 23.4179 10.928 23.4249 10.9726 23.4249C11.9324 23.4249 12.738 22.7927 13.0199 21.9204C13.3063 20.7708 13.3313 19.5583 13.0624 18.3991ZM9.01542 20.3541C8.15324 20.3541 7.45529 19.6514 7.45529 18.7846C7.45529 17.9204 8.15324 17.2173 9.01542 17.2173C9.87509 17.2173 10.5725 17.9204 10.5725 18.7846C10.5725 19.6509 9.87509 20.3541 9.01542 20.3541Z" fill="white"/>
<path d="M49.467 14.8488C48.6839 14.8488 48.0386 14.2128 48.0386 13.3965C48.024 12.5928 48.6834 11.9452 49.48 11.9452C50.2781 11.9452 50.9255 12.5792 50.9255 13.3965C50.9255 14.1992 50.2781 14.8488 49.48 14.8488H49.467Z" fill="white"/>
<path d="M61.6704 14.8488C60.8884 14.8488 60.2435 14.2128 60.2435 13.3965C60.2269 12.5928 60.8884 11.9452 61.6855 11.9452C62.4831 11.9452 63.128 12.5792 63.128 13.3965C63.128 14.1992 62.4831 14.8488 61.6855 14.8488H61.6704Z" fill="white"/>
<path d="M23.5181 12.9685C23.5181 19.3459 18.3605 24.5314 12.0164 24.5314C5.67724 24.5314 0.517205 19.3484 0.517205 12.9685C0.517205 6.59358 5.67674 1.40659 12.0164 1.40659C18.3595 1.40709 23.5181 6.59409 23.5181 12.9685ZM12.0164 0.889648C5.38985 0.889648 0 6.30969 0 12.9685C0 19.6293 5.38985 25.0503 12.0164 25.0503C18.6424 25.0503 24.0343 19.6323 24.0343 12.9685C24.0343 6.30969 18.6424 0.889648 12.0164 0.889648Z" fill="white"/>
<path d="M22.5558 12.9684C22.5558 7.15617 17.8724 2.44531 12.091 2.44531C12.0515 2.44531 12.0124 2.44884 11.9729 2.44884C11.2304 3.58339 10.7167 4.95401 10.4603 6.26071C10.1749 7.71338 10.1369 9.2189 10.4863 10.6655C10.6981 11.5524 11.0141 12.4162 11.4537 13.217C11.8752 13.9912 12.411 14.6898 12.8255 15.467C14.0622 17.7864 14.5233 20.5035 13.5565 23.0127C13.506 23.1461 13.4549 23.2745 13.3963 23.4078C13.6436 23.3791 13.8855 23.3343 14.1248 23.288C14.642 22.5969 14.8828 21.6995 15.0456 20.8589C15.2403 19.8723 15.2488 18.8616 15.021 17.8805C14.7171 16.5784 14.1503 15.2667 13.6401 14.0581C12.411 11.1492 12.7229 7.47932 14.3601 4.73052L14.3746 4.71089C14.6535 4.2458 15.3229 4.74965 15.0456 5.21273C14.4512 6.20987 14.0387 7.54878 13.8835 8.69088C13.7253 9.85261 13.7288 11.0451 14.0106 12.1897C14.3371 13.5341 14.8137 14.8428 15.3234 16.1022C16.1831 18.2158 16.436 20.9017 15.337 22.9694C15.6248 22.8738 15.9092 22.762 16.1886 22.6453C16.4765 22.1943 16.7098 21.6793 16.8625 21.1996C17.1334 20.3424 17.1464 19.4716 17.0353 18.5792C16.8841 17.3958 16.4615 16.3363 16.1405 15.2057C15.3745 12.5088 15.8782 9.28836 17.6005 7.03385C17.928 6.60349 18.6154 7.08469 18.284 7.51556C17.6781 8.31438 17.2466 9.30094 16.9722 10.2588C16.6728 11.3013 16.5286 12.4142 16.6517 13.4974C16.7949 14.713 17.2035 15.7962 17.545 16.9544C18.0191 18.5606 18.0652 20.4109 17.4649 21.9879C20.513 20.1542 22.5558 16.8044 22.5558 12.9684Z" fill="white"/>
<path d="M38.509 18.1487H36.1892V7.78943H38.509V18.1487Z" fill="white"/>
<path d="M47.0771 15.0684C47.0771 17.2113 45.7723 18.281 43.1647 18.281C41.9967 18.281 40.9908 18.1063 40.1501 17.756L40.4536 16.1462C41.1946 16.5005 41.9626 16.6752 42.7577 16.6752C43.372 16.6752 43.8086 16.6118 44.0775 16.4814C44.4805 16.2871 44.6823 15.9202 44.6823 15.375C44.6823 14.9431 44.429 14.5676 43.9263 14.2449C43.6925 14.0959 43.2584 13.8956 42.621 13.6384C41.8169 13.3132 41.2311 12.9311 40.8611 12.4896C40.4365 11.9777 40.2257 11.3112 40.2257 10.4953C40.2257 9.54742 40.6413 8.81853 41.4724 8.3066C42.1729 7.87671 43.0296 7.66077 44.0399 7.66077C45.1089 7.66077 45.9876 7.79919 46.676 8.07706L46.4282 9.58719C45.566 9.37124 44.814 9.26402 44.1736 9.26402C43.0125 9.26402 42.4347 9.60631 42.4347 10.2879C42.4347 10.747 42.6791 11.1185 43.1677 11.4049C43.2253 11.4426 43.6779 11.6148 44.5211 11.9234C46.2249 12.5526 47.0771 13.6001 47.0771 15.0684Z" fill="white"/>
<path d="M75.4365 18.1487H73.1154V7.78943H75.4365V18.1487Z" fill="white"/>
<path d="M84.0001 15.0684C84.0001 17.2113 82.6949 18.281 80.0888 18.281C78.9172 18.281 77.9144 18.1063 77.0737 17.756L77.3761 16.1462C78.1167 16.5005 78.8852 16.6752 79.6813 16.6752C80.2931 16.6752 80.7347 16.6118 81.0016 16.4814C81.4021 16.2871 81.6044 15.9202 81.6044 15.375C81.6044 14.9431 81.3525 14.5676 80.8494 14.2449C80.6155 14.0959 80.182 13.8956 79.5431 13.6384C78.74 13.3132 78.1552 12.9311 77.7837 12.4896C77.3591 11.9777 77.1473 11.3112 77.1473 10.4953C77.1473 9.54742 77.5634 8.81853 78.393 8.3066C79.096 7.87671 79.9516 7.66077 80.9615 7.66077C82.0295 7.66077 82.9072 7.79919 83.5971 8.07706L83.3498 9.58769C82.4901 9.37174 81.7366 9.26452 81.0972 9.26452C79.9371 9.26452 79.3573 9.60682 79.3573 10.2884C79.3573 10.7475 79.6022 11.119 80.0918 11.4054C80.1509 11.4431 80.6015 11.6153 81.4477 11.9239C83.1495 12.5526 84.0001 13.6001 84.0001 15.0684Z" fill="white"/>
<path d="M70.2488 7.78993L68.4423 13.5876H68.4353C68.3893 13.7411 68.2506 13.8523 68.0809 13.8523C67.9326 13.8523 67.806 13.7657 67.7469 13.6399L65.9004 7.78943H63.3043L66.6995 18.1491H68.6526L72.1424 7.78943H70.2488V7.78993Z" fill="white"/>
<path d="M33.3265 7.78943L31.519 13.5871H31.5145C31.468 13.7406 31.3283 13.8518 31.1595 13.8518C30.9968 13.8518 30.8611 13.7466 30.8106 13.5996L28.9761 7.78943H26.3795L29.7767 18.1491H31.7283L35.2181 7.78943H33.3265Z" fill="white"/>
<path d="M60.7222 17.0196C60.7207 16.8163 60.5545 16.6527 60.3537 16.6527C60.3487 16.6527 60.3442 16.6527 60.3412 16.6552V16.6512H59.5992L56.5445 7.78943H52.7839V8.89872H52.7854C52.7854 8.90225 52.7854 8.90426 52.7839 8.90829V8.91886C52.7874 9.1227 52.9511 9.28577 53.1529 9.28577C53.1579 9.28577 53.1634 9.28527 53.1669 9.28527V9.28728H53.8689L50.9064 18.1491H52.7919L53.5705 15.6657H56.9686L57.7391 18.1491H60.7237V17.0413H60.7222C60.7237 17.0377 60.7237 17.0342 60.7237 17.0292L60.7222 17.0196ZM54.5103 14.1719C54.316 14.1628 54.1583 14.0018 54.1583 13.8045C54.1583 13.7592 54.1678 13.7189 54.1798 13.6842L54.8778 11.4611C54.9223 11.3066 55.0625 11.1923 55.2307 11.1923C55.4 11.1923 55.5402 11.3066 55.5852 11.4611H55.5882L56.4905 14.1744H54.5108V14.1719H54.5103Z" fill="white"/>
</svg>
