<svg width="16" height="16" viewBox="0 0 16 16" fill="none" xmlns="http://www.w3.org/2000/svg">
<g clip-path="url(#clip0)">
<path d="M13.68 2.29933C12.16 0.83 10.16 0 8.03 0C1.91667 0 -1.922 6.62333 1.13067 11.892L0 16L4.22333 14.8987C6.06333 15.8927 7.57067 15.8047 8.034 15.8633C15.1227 15.8633 18.6513 7.28733 13.67 2.32533L13.68 2.29933Z" fill="#ECEFF1"/>
<path d="M8.04483 14.5008L8.04083 14.5001H8.03017C5.90883 14.5001 4.5535 13.4955 4.42017 13.4375L1.92017 14.0875L2.59017 11.6575L2.43083 11.4075C1.77083 10.3568 1.42017 9.14681 1.42017 7.90081C1.42017 2.03881 8.5835 -0.892526 12.7288 3.25081C16.8642 7.35081 13.9608 14.5008 8.04483 14.5008Z" fill="#4CAF50"/>
<path d="M11.6714 9.53795L11.6654 9.58795C11.4648 9.48795 10.4874 9.00995 10.3054 8.94395C9.89676 8.79262 10.0121 8.91995 9.22743 9.81862C9.11076 9.94862 8.99476 9.95862 8.79676 9.86862C8.59676 9.76862 7.95476 9.55862 7.19476 8.87862C6.60276 8.34862 6.20543 7.69862 6.08809 7.49862C5.89276 7.16128 6.30143 7.11328 6.67343 6.40928C6.74009 6.26928 6.70609 6.15928 6.65676 6.05995C6.60676 5.95995 6.20876 4.97995 6.04209 4.58928C5.88209 4.19995 5.71743 4.24928 5.59409 4.24928C5.21009 4.21595 4.92943 4.22128 4.68209 4.47862C3.60609 5.66128 3.87743 6.88128 4.79809 8.17862C6.60743 10.5466 7.57143 10.9826 9.33409 11.588C9.81009 11.7393 10.2441 11.718 10.5874 11.6686C10.9701 11.608 11.7654 11.188 11.9314 10.718C12.1014 10.248 12.1014 9.85795 12.0514 9.76795C12.0021 9.67795 11.8714 9.62795 11.6714 9.53795Z" fill="#FAFAFA"/>
</g>
<defs>
<clipPath id="clip0">
<rect width="16" height="16" fill="white"/>
</clipPath>
</defs>
</svg>
