<svg width="16" height="16" viewBox="0 0 16 16" fill="none" xmlns="http://www.w3.org/2000/svg">
<g clip-path="url(#clip0)">
<path d="M15.6703 4.15899C15.4859 3.47357 14.9455 2.93329 14.2602 2.74872C13.0081 2.40607 7.99984 2.40607 7.99984 2.40607C7.99984 2.40607 2.99169 2.40607 1.73962 2.73566C1.0675 2.9201 0.513914 3.47369 0.329466 4.15899C0 5.41094 0 8.00736 0 8.00736C0 8.00736 0 10.6168 0.329466 11.8557C0.514036 12.541 1.05432 13.0814 1.73974 13.266C3.00487 13.6087 7.99997 13.6087 7.99997 13.6087C7.99997 13.6087 13.0081 13.6087 14.2602 13.2791C14.9456 13.0946 15.4859 12.5542 15.6705 11.8689C15.9999 10.6168 15.9999 8.02055 15.9999 8.02055C15.9999 8.02055 16.0131 5.41094 15.6703 4.15899Z" fill="#FF0000"/>
<path d="M6.40527 10.4061L10.5699 8.00745L6.40527 5.60876V10.4061Z" fill="white"/>
</g>
<defs>
<clipPath id="clip0">
<rect width="16" height="16" fill="white"/>
</clipPath>
</defs>
</svg>
