<svg width="14" height="14" viewBox="0 0 14 14" fill="none" xmlns="http://www.w3.org/2000/svg">
<path d="M13.5673 1.14446H12.0175V0.825302C12.0175 0.606418 11.9268 0.3965 11.7652 0.241725C11.6036 0.0869512 11.3845 0 11.156 0C10.9275 0 10.7084 0.0869512 10.5468 0.241725C10.3853 0.3965 10.2945 0.606418 10.2945 0.825302V1.14446H3.79119V0.825302C3.79119 0.606418 3.70043 0.3965 3.53886 0.241725C3.3773 0.0869512 3.15817 0 2.92969 0C2.7012 0 2.48208 0.0869512 2.32051 0.241725C2.15895 0.3965 2.06818 0.606418 2.06818 0.825302V1.14446H0.518443C0.48676 1.14445 0.455385 1.15041 0.42611 1.16202C0.396836 1.17362 0.370236 1.19065 0.347833 1.21211C0.32543 1.23357 0.307663 1.25905 0.295547 1.28709C0.283431 1.31514 0.277204 1.3452 0.277222 1.37555V13.7C0.277222 13.7613 0.302636 13.8201 0.347874 13.8634C0.393112 13.9068 0.454467 13.9311 0.518443 13.9311H11.5571C11.6211 13.9311 11.6824 13.9067 11.7276 13.8634L13.7379 11.9377C13.7603 11.9162 13.778 11.8908 13.7902 11.8628C13.8023 11.8347 13.8085 11.8047 13.8085 11.7744V1.37555C13.8085 1.3452 13.8023 1.31514 13.7902 1.28709C13.778 1.25905 13.7603 1.23357 13.7379 1.21211C13.7155 1.19065 13.6889 1.17362 13.6596 1.16202C13.6303 1.15041 13.5989 1.14445 13.5673 1.14446ZM10.777 0.825302C10.777 0.728993 10.8169 0.636629 10.888 0.568528C10.9591 0.500428 11.0555 0.462169 11.156 0.462169C11.2565 0.462169 11.353 0.500428 11.4241 0.568528C11.4951 0.636629 11.5351 0.728993 11.5351 0.825302V1.92566C11.5351 2.02197 11.4951 2.11433 11.4241 2.18244C11.353 2.25054 11.2565 2.28879 11.156 2.28879C11.0555 2.28879 10.9591 2.25054 10.888 2.18244C10.8169 2.11433 10.777 2.02197 10.777 1.92566V0.825302ZM2.55063 0.825302C2.55063 0.728993 2.59056 0.636629 2.66165 0.568528C2.73274 0.500428 2.82916 0.462169 2.92969 0.462169C3.03022 0.462169 3.12664 0.500428 3.19773 0.568528C3.26881 0.636629 3.30875 0.728993 3.30875 0.825302V1.92566C3.30875 2.02197 3.26881 2.11433 3.19773 2.18244C3.12664 2.25054 3.03022 2.28879 2.92969 2.28879C2.82916 2.28879 2.73274 2.25054 2.66165 2.18244C2.59056 2.11433 2.55063 2.02197 2.55063 1.92566V0.825302ZM0.759664 1.60663H2.06818V1.92566C2.06818 2.14454 2.15895 2.35446 2.32051 2.50924C2.48208 2.66401 2.7012 2.75096 2.92969 2.75096C3.15817 2.75096 3.3773 2.66401 3.53886 2.50924C3.70043 2.35446 3.79119 2.14454 3.79119 1.92566V1.60663H10.2945V1.92566C10.2945 2.14454 10.3853 2.35446 10.5468 2.50924C10.7084 2.66401 10.9275 2.75096 11.156 2.75096C11.3845 2.75096 11.6036 2.66401 11.7652 2.50924C11.9268 2.35446 12.0175 2.14454 12.0175 1.92566V1.60663H13.326V4.25856H0.759664V1.60663ZM0.759664 4.7202H13.326V11.5433H11.5571C11.4932 11.5433 11.4318 11.5676 11.3866 11.611C11.3413 11.6543 11.3159 11.7131 11.3159 11.7744V13.4689H0.759664V4.7202ZM12.985 12.0054L11.7984 13.1421V12.0054H12.985Z" fill="#74C48C"/>
</svg>
