<svg width="471" height="240" viewBox="0 0 471 240" fill="none" xmlns="http://www.w3.org/2000/svg">
<path d="M102.334 102.305C102.138 102.13 101.959 101.973 101.8 101.833C103.275 101.837 105.172 102.187 107.419 102.844C110.291 103.682 113.672 105.002 117.366 106.654C124.753 109.958 133.343 114.569 141.522 119.256C149.698 123.94 157.452 128.694 163.163 132.276C166.019 134.067 168.363 135.566 169.992 136.616C170.807 137.141 171.444 137.554 171.876 137.836C172.093 137.977 172.258 138.085 172.369 138.158L172.495 138.24L172.527 138.261L172.534 138.266L172.536 138.267C172.537 138.268 172.537 138.268 172.812 137.85L172.537 138.268L172.856 138.477L173.142 138.225L208.521 107.089L208.655 106.97L208.684 106.793C209.853 99.5246 208.402 84.769 203.053 69.1261L203.053 69.1259C201.894 65.7408 201.375 63.3577 201.145 61.8313C201.086 61.4392 201.046 61.1038 201.019 60.8224C201.282 61.0675 201.596 61.3627 201.952 61.7006C203.064 62.7561 204.579 64.2273 206.194 65.8909C209.441 69.2341 213.038 73.2988 214.621 76.3216C215.039 77.1297 215.666 78.0526 216.4 79.1336C218.626 82.4104 221.838 87.1406 223.215 94.5333L223.357 95.2912L223.991 94.8533C246.496 79.3195 272.942 70.3566 300.326 68.9831C323.629 67.8456 346.921 71.2336 368.897 78.9459C368.418 78.9323 367.939 78.9186 367.46 78.905C349.637 78.3975 331.837 77.8907 314.048 79.9842C290.448 82.0351 272.792 89.2053 258.647 99.4203C244.508 109.631 233.901 122.867 224.379 137.008L224.793 137.287L224.379 137.008C210.867 157.076 207.629 179.542 207.777 199.745C207.852 209.848 208.773 219.395 209.683 227.799C209.817 229.034 209.95 230.244 210.081 231.426C210.814 238.065 211.452 243.852 211.527 248.5H125.872C128.883 242.428 134.176 229.974 140.408 209.037C140.408 209.035 140.409 209.033 140.409 209.031L140.412 209.024L140.43 208.968C140.437 208.947 140.445 208.921 140.454 208.891C140.466 208.851 140.481 208.804 140.497 208.75C140.555 208.559 140.639 208.276 140.742 207.905C140.949 207.164 141.234 206.074 141.551 204.67C142.185 201.861 142.945 197.797 143.451 192.761C144.465 182.691 144.469 168.73 140.43 153.164L140.43 153.164C137.316 141.191 127.394 128.146 118.315 118.136C113.765 113.121 109.41 108.848 106.192 105.83C104.583 104.321 103.258 103.124 102.334 102.305Z" stroke="#ACCD6A" stroke-opacity="0.5"/>
<path d="M358.262 90.8704C358.484 90.9058 358.784 90.9574 359.15 91.0291C360.003 91.1961 361.218 91.472 362.655 91.9068C365.531 92.7773 369.286 94.2803 372.82 96.8093C376.352 99.3361 379.658 102.882 381.661 107.846C383.625 112.712 384.35 118.978 382.761 127.043C374.792 125.562 369.298 122.582 365.528 118.961C361.681 115.267 359.6 110.876 358.536 106.648C357.47 102.417 357.426 98.3591 357.65 95.3533C357.762 93.8518 357.941 92.6166 358.092 91.7587C358.156 91.3896 358.216 91.0905 358.262 90.8704Z" stroke="#ACCD6A" stroke-opacity="0.5"/>
<path d="M341.013 91.5162C341.317 91.2892 341.568 91.1103 341.754 90.9809C341.891 91.1571 342.074 91.398 342.292 91.6989C342.799 92.3992 343.494 93.424 344.242 94.7157C345.739 97.3015 347.439 100.944 348.273 105.186C349.105 109.424 349.071 114.254 347.109 119.234C345.185 124.118 341.393 129.184 334.669 133.992C329.876 127.506 327.923 121.605 327.67 116.407C327.412 111.103 328.922 106.488 331.062 102.681C333.204 98.8713 335.972 95.8803 338.21 93.8395C339.328 92.82 340.311 92.0401 341.013 91.5162Z" stroke="#ACCD6A" stroke-opacity="0.5"/>
<path d="M324.048 89.4639C324.42 89.5369 324.72 89.6029 324.941 89.6542C324.9 89.8725 324.841 90.1661 324.761 90.5243C324.572 91.3661 324.265 92.5636 323.792 93.9782C322.846 96.81 321.242 100.498 318.61 103.944C315.98 107.387 312.329 110.585 307.281 112.457C302.331 114.293 296.002 114.868 287.919 113.104C289.591 105.239 292.716 99.86 296.45 96.2055C300.261 92.4755 304.735 90.5126 309.023 89.5552C313.314 88.5971 317.407 88.6484 320.433 88.9416C321.945 89.0881 323.187 89.2946 324.048 89.4639Z" stroke="#ACCD6A" stroke-opacity="0.5"/>
<path d="M361.679 66.326C361.747 66.1021 361.844 65.7972 361.971 65.4238C362.263 64.571 362.717 63.3618 363.364 61.9437C364.66 59.1049 366.726 55.4422 369.805 52.1245C372.882 48.8093 376.965 45.8445 382.304 44.3806C387.54 42.9451 394.022 42.9423 402.002 45.5179C399.429 53.6242 395.646 58.9595 391.431 62.4149C387.135 65.9373 382.36 67.5323 377.889 68.091C373.414 68.6502 369.251 68.1701 366.202 67.5472C364.679 67.236 363.437 66.89 362.578 66.6224C362.202 66.5054 361.9 66.4034 361.679 66.326Z" stroke="#ACCD6A" stroke-opacity="0.5"/>
<path d="M346.404 61.8769C346.154 62.2196 345.947 62.4902 345.795 62.6829C345.591 62.5406 345.308 62.3385 344.962 62.0784C344.203 61.5085 343.142 60.6607 341.935 59.5531C339.518 57.3359 336.531 54.0877 334.224 49.9546C331.918 45.8243 330.296 40.8188 330.593 35.0728C330.884 29.4329 333.026 23.0386 338.251 16.0204C345.535 21.258 349.636 26.767 351.708 32.0738C353.818 37.4767 353.839 42.7091 352.923 47.2959C352.007 51.8867 350.154 55.8242 348.525 58.6179C347.711 60.0136 346.955 61.1205 346.404 61.8769Z" stroke="#ACCD6A" stroke-opacity="0.5"/>
<path d="M320.001 53.014C320.155 53.5054 320.267 53.897 320.341 54.1689C320.068 54.2585 319.668 54.3838 319.158 54.5295C318.116 54.8271 316.611 55.2094 314.767 55.546C311.079 56.2196 306.05 56.707 300.672 55.9734C295.298 55.2403 289.583 53.2892 284.5 49.0929C279.501 44.9657 275.081 38.6409 272.206 29.0903C282.013 26.0733 289.898 26.1252 296.21 27.8817C302.623 29.6663 307.452 33.2215 311.045 37.1796C314.641 41.1405 316.996 45.5008 318.452 48.8764C319.18 50.5629 319.681 52.0003 320.001 53.014Z" stroke="#ACCD6A" stroke-opacity="0.5"/>
<path d="M276.955 60.7515C277.153 61.1469 277.304 61.4677 277.409 61.6984C277.18 61.8161 276.856 61.9776 276.446 62.1695C275.559 62.585 274.27 63.1427 272.673 63.7079C269.476 64.8393 265.055 65.9959 260.142 66.1109C255.232 66.2259 249.84 65.3006 244.68 62.2782C239.614 59.3108 234.738 54.3017 230.759 46.1948C239.081 42.0855 246.129 40.9969 252.019 41.6573C258.014 42.3293 262.849 44.8175 266.639 47.8465C270.432 50.8779 273.173 54.4475 274.967 57.2647C275.864 58.6722 276.521 59.8887 276.955 60.7515Z" stroke="#ACCD6A" stroke-opacity="0.5"/>
<path d="M60.6012 80.8475C60.4991 80.5455 60.4198 80.2943 60.3616 80.1023C60.5501 80.0374 60.7982 79.9552 61.1002 79.8621C61.8571 79.6288 62.9515 79.3273 64.294 79.0576C66.9818 78.5175 70.6489 78.1076 74.5866 78.6162C78.5206 79.1243 82.7174 80.548 86.4862 83.6703C90.174 86.7255 93.4825 91.4324 95.7239 98.5743C88.7211 100.809 83.0384 100.782 78.4509 99.5016C73.76 98.1928 70.1746 95.5628 67.4732 92.6246C64.7697 89.6839 62.9579 86.4409 61.8216 83.9274C61.254 82.6719 60.8564 81.6018 60.6012 80.8475Z" stroke="#ACCD6A" stroke-opacity="0.5"/>
<path d="M66.9354 132.784C66.6167 132.741 66.3543 132.7 66.1551 132.666C66.1803 132.47 66.2162 132.214 66.2662 131.905C66.3919 131.128 66.606 130.021 66.9589 128.706C67.6655 126.075 68.9245 122.629 71.1323 119.349C73.3379 116.072 76.4866 112.966 80.9788 110.992C85.3753 109.061 91.0944 108.198 98.537 109.365C97.4292 116.588 94.8746 121.635 91.6802 125.153C88.413 128.75 84.4486 130.778 80.5998 131.882C76.7479 132.987 73.0211 133.163 70.252 133.062C68.8688 133.011 67.7283 132.891 66.9354 132.784Z" stroke="#ACCD6A" stroke-opacity="0.5"/>
<path d="M110.185 96.0558C109.891 96.1919 109.647 96.299 109.461 96.3781C109.374 96.1996 109.264 95.9639 109.136 95.676C108.817 94.957 108.391 93.9132 107.97 92.6214C107.125 90.0352 106.299 86.4694 106.359 82.5324C106.42 78.5994 107.365 74.3025 110.056 70.2326C112.69 66.2487 117.019 62.4489 123.905 59.4231C126.937 66.0849 127.557 71.695 126.8 76.3633C126.026 81.1365 123.806 84.9671 121.177 87.9605C118.545 90.9563 115.509 93.106 113.126 94.5078C111.935 95.208 110.91 95.7198 110.185 96.0558Z" stroke="#ACCD6A" stroke-opacity="0.5"/>
<path d="M123.336 101.194C123.173 101.07 123.035 100.962 122.923 100.872C123.009 100.76 123.114 100.625 123.24 100.47C123.633 99.9824 124.219 99.301 124.982 98.5306C126.51 96.9881 128.741 95.0997 131.561 93.6958C134.377 92.2937 137.774 91.3776 141.651 91.7646C145.422 92.141 149.685 93.7545 154.34 97.4184C150.736 101.93 147.001 104.395 143.432 105.57C139.76 106.779 136.225 106.635 133.132 105.898C130.036 105.16 127.391 103.829 125.518 102.679C124.582 102.104 123.841 101.576 123.336 101.194Z" stroke="#ACCD6A" stroke-opacity="0.5"/>
<path d="M176.568 29.1681C176.589 28.9666 176.61 28.7937 176.628 28.6523C176.769 28.6662 176.942 28.685 177.141 28.7101C177.762 28.788 178.649 28.9265 179.704 29.1685C181.818 29.6531 184.591 30.5492 187.257 32.1927C189.919 33.8342 192.468 36.217 194.153 39.6796C195.792 43.048 196.631 47.474 195.922 53.2972C190.183 52.6135 186.129 50.7519 183.267 48.3592C180.324 45.8982 178.61 42.8488 177.634 39.8623C176.656 36.8726 176.42 33.954 176.431 31.7775C176.436 30.6907 176.503 29.7926 176.568 29.1681Z" stroke="#ACCD6A" stroke-opacity="0.5"/>
<path d="M316.654 121.128C316.935 120.997 317.17 120.892 317.35 120.814C317.434 120.987 317.542 121.213 317.666 121.489C317.981 122.19 318.401 123.207 318.819 124.467C319.657 126.989 320.48 130.468 320.438 134.313C320.396 138.155 319.492 142.356 316.88 146.343C314.325 150.244 310.114 153.975 303.402 156.963C300.421 150.473 299.795 144.999 300.514 140.439C301.251 135.774 303.402 132.022 305.957 129.086C308.514 126.148 311.469 124.034 313.79 122.654C314.95 121.964 315.948 121.46 316.654 121.128Z" stroke="#ACCD6A" stroke-opacity="0.5"/>
<path d="M358.416 135.322C358.632 135.416 358.928 135.549 359.289 135.722C360.106 136.113 361.257 136.708 362.591 137.522C365.262 139.15 368.651 141.646 371.546 145.119C374.439 148.59 376.834 153.031 377.539 158.561C378.23 163.989 377.298 170.507 373.549 178.237C365.89 174.662 361.129 170.22 358.283 165.578C355.381 160.847 354.446 155.873 354.493 151.33C354.541 146.784 355.574 142.678 356.598 139.705C357.11 138.219 357.618 137.02 357.998 136.193C358.166 135.827 358.309 135.533 358.416 135.322Z" stroke="#ACCD6A" stroke-opacity="0.5"/>
<path d="M397.842 111.81C397.875 111.436 397.909 111.131 397.936 110.907C398.161 110.924 398.465 110.95 398.838 110.99C399.705 111.084 400.943 111.256 402.416 111.568C405.367 112.193 409.249 113.374 413 115.6C416.748 117.823 420.359 121.085 422.79 125.874C425.174 130.569 426.441 136.768 425.549 144.963C417.457 144.164 411.708 141.657 407.626 138.36C403.462 134.997 401.002 130.786 399.573 126.652C398.143 122.515 397.748 118.464 397.712 115.44C397.694 113.93 397.766 112.681 397.842 111.81Z" stroke="#ACCD6A" stroke-opacity="0.5"/>
<path d="M288.734 129.413C289.132 129.296 289.455 129.209 289.69 129.149C289.761 129.375 289.854 129.687 289.96 130.077C290.2 130.954 290.504 132.22 290.761 133.769C291.276 136.87 291.597 141.089 290.837 145.579C290.078 150.066 288.24 154.818 284.438 159.009C280.706 163.123 275.054 166.726 266.596 168.991C264.288 160.846 264.566 154.313 266.262 149.091C267.991 143.768 271.208 139.767 274.743 136.794C278.281 133.818 282.13 131.878 285.101 130.682C286.584 130.084 287.846 129.674 288.734 129.413Z" stroke="#ACCD6A" stroke-opacity="0.5"/>
<path d="M332.177 164.398C332.5 164.138 332.765 163.936 332.958 163.792C333.111 163.974 333.319 164.227 333.568 164.548C334.129 165.267 334.899 166.321 335.736 167.654C337.41 170.322 339.339 174.097 340.376 178.534C341.413 182.968 341.559 188.057 339.679 193.375C337.833 198.595 334.02 204.074 327.106 209.387C321.805 202.726 319.522 196.577 319.06 191.104C318.59 185.526 320.008 180.608 322.119 176.521C324.231 172.43 327.033 169.178 329.313 166.947C330.452 165.833 331.458 164.975 332.177 164.398Z" stroke="#ACCD6A" stroke-opacity="0.5"/>
<path d="M25.4872 114.347C25.5977 114.183 25.7447 113.97 25.9275 113.718C26.3891 113.079 27.0783 112.185 27.9845 111.168C29.7989 109.131 32.4732 106.611 35.9218 104.658C39.3672 102.708 43.5794 101.327 48.4838 101.552C53.2827 101.771 58.783 103.531 64.9123 107.862C60.6744 113.838 56.1213 117.223 51.6836 118.953C47.1447 120.724 42.6882 120.779 38.7509 120.058C34.8105 119.336 31.3993 117.839 28.9695 116.518C27.7558 115.858 26.7901 115.244 26.1295 114.796C25.8652 114.617 25.6499 114.465 25.4872 114.347Z" stroke="#ACCD6A" stroke-opacity="0.5"/>
<path d="M90.0934 47.777C90.2156 47.8515 90.3641 47.9442 90.5351 48.0549C91.0623 48.396 91.8029 48.9077 92.6501 49.5864C94.3467 50.9454 96.4585 52.9642 98.1419 55.611C99.8233 58.2545 101.074 61.5182 101.066 65.3812C101.058 69.1409 99.8576 73.5084 96.6376 78.4645C91.7486 75.3583 88.9061 71.9157 87.3769 68.5089C85.8045 65.0057 85.6035 61.5017 86.0413 58.3732C86.4796 55.2414 87.5572 52.4954 88.5293 50.5281C89.0148 49.5458 89.4723 48.761 89.8073 48.2234C89.917 48.0475 90.0134 47.8981 90.0934 47.777Z" stroke="#ACCD6A" stroke-opacity="0.5"/>
<path d="M221.085 26.6531C221.287 26.6134 221.46 26.582 221.602 26.5578C221.631 26.6955 221.663 26.8637 221.698 27.0596C221.807 27.6714 221.937 28.5529 222.016 29.6247C222.176 31.7709 222.135 34.6643 221.342 37.6748C220.551 40.6814 219.012 43.7988 216.177 46.4149C213.417 48.961 209.401 51.0589 203.58 52.0987C202.552 46.4582 203.151 42.0691 204.609 38.6535C206.109 35.1393 208.535 32.6169 211.119 30.8117C213.706 29.0046 216.442 27.9219 218.537 27.2913C219.583 26.9764 220.466 26.7753 221.085 26.6531Z" stroke="#ACCD6A" stroke-opacity="0.5"/>
<path d="M164.649 75.2257C164.695 75.0963 164.752 74.9402 164.822 74.7605C165.043 74.1867 165.386 73.3736 165.869 72.4242C166.835 70.5229 168.356 68.0882 170.575 65.9325C172.791 63.7794 175.699 61.9086 179.45 61.116C183.098 60.3452 187.583 60.5864 193.054 62.6318C191.042 67.9379 188.287 71.3626 185.298 73.5273C182.222 75.7557 178.865 76.6733 175.741 76.9023C172.614 77.1315 169.731 76.6696 167.625 76.1474C166.573 75.8866 165.719 75.6117 165.129 75.4027C164.941 75.3361 164.78 75.2762 164.649 75.2257Z" stroke="#ACCD6A" stroke-opacity="0.5"/>
<path d="M168.754 92.5116C168.701 92.3012 168.66 92.1206 168.628 91.9737C168.773 91.9374 168.952 91.8947 169.162 91.8483C169.794 91.7085 170.706 91.5355 171.818 91.4046C174.046 91.1427 177.062 91.0517 180.237 91.7256C183.408 92.3987 186.73 93.833 189.591 96.6185C192.377 99.3304 194.754 103.35 196.115 109.268C190.277 110.607 185.668 110.207 182.034 108.872C178.3 107.501 175.557 105.126 173.554 102.557C171.55 99.9853 170.294 97.2245 169.538 95.101C169.161 94.0406 168.91 93.1426 168.754 92.5116Z" stroke="#ACCD6A" stroke-opacity="0.5"/>
<path d="M16.7718 157.23C16.8179 157.024 16.8827 156.751 16.9688 156.421C17.1775 155.62 17.5115 154.482 18.0114 153.141C19.0121 150.457 20.6723 146.975 23.3105 143.758C25.9461 140.545 29.5537 137.601 34.4573 135.974C39.2615 134.38 45.3468 134.037 53.0379 135.991C51.1676 143.463 47.9911 148.507 44.2916 151.882C40.5121 155.33 36.156 157.064 32.0128 157.841C27.8665 158.618 23.9429 158.435 21.0509 158.055C19.6063 157.865 18.4227 157.627 17.6022 157.436C17.2593 157.357 16.98 157.286 16.7718 157.23Z" stroke="#ACCD6A" stroke-opacity="0.5"/>
<path d="M71.7726 178.13C71.5505 178.254 71.3616 178.355 71.2114 178.433C71.1287 178.289 71.0266 178.108 70.9097 177.89C70.5831 177.282 70.1417 176.397 69.6871 175.295C68.7766 173.087 67.8186 170.023 67.6121 166.575C67.4058 163.131 67.9494 159.313 70.0344 155.577C72.0691 151.931 75.5911 148.329 81.392 145.228C84.4607 150.844 85.3635 155.697 85.0099 159.816C84.6472 164.041 82.9589 167.536 80.8561 170.327C78.7514 173.12 76.2371 175.2 74.2433 176.583C73.2475 177.274 72.3847 177.789 71.7726 178.13Z" stroke="#ACCD6A" stroke-opacity="0.5"/>
<path d="M124.042 196.36C123.833 196.605 123.656 196.804 123.52 196.953C123.366 196.827 123.166 196.659 122.928 196.45C122.336 195.93 121.51 195.16 120.583 194.163C118.728 192.167 116.477 189.274 114.876 185.673C113.276 182.077 112.327 177.78 113.058 172.961C113.774 168.245 116.107 162.987 121.087 157.365C126.644 162.166 129.568 167.01 130.845 171.569C132.151 176.23 131.746 180.633 130.618 184.444C129.488 188.258 127.636 191.471 126.061 193.734C125.275 194.864 124.559 195.754 124.042 196.36Z" stroke="#ACCD6A" stroke-opacity="0.5"/>
<path d="M412.565 180.566C412.598 180.191 412.631 179.887 412.659 179.663C412.883 179.679 413.187 179.705 413.56 179.746C414.427 179.84 415.664 180.012 417.137 180.324C420.086 180.948 423.966 182.13 427.716 184.355C431.464 186.579 435.074 189.841 437.506 194.629C439.89 199.325 441.159 205.524 440.272 213.718C432.18 212.92 426.43 210.412 422.349 207.116C418.185 203.753 415.725 199.542 414.296 195.408C412.865 191.271 412.47 187.219 412.435 184.196C412.417 182.686 412.489 181.436 412.565 180.566Z" stroke="#ACCD6A" stroke-opacity="0.5"/>
<path d="M102.149 160.568C101.893 160.766 101.679 160.925 101.515 161.043C101.391 160.888 101.23 160.682 101.041 160.429C100.57 159.799 99.9217 158.874 99.2219 157.708C97.8209 155.372 96.2198 152.077 95.4007 148.225C94.5825 144.376 94.5457 139.979 96.262 135.419C97.9421 130.955 101.316 126.297 107.357 121.831C111.797 127.647 113.652 132.974 113.955 137.69C114.265 142.512 112.955 146.737 111.059 150.238C109.161 153.741 106.681 156.51 104.67 158.406C103.666 159.353 102.781 160.08 102.149 160.568Z" stroke="#ACCD6A" stroke-opacity="0.5"/>
<path d="M381.002 82.3093C380.798 81.9786 380.64 81.7063 380.525 81.5048C380.725 81.3812 381.001 81.2157 381.345 81.0191C382.131 80.57 383.276 79.9598 384.706 79.319C387.569 78.0364 391.557 76.6377 396.08 76.1584C400.6 75.6794 405.643 76.1192 410.633 78.5018C415.525 80.8373 420.401 85.0566 424.691 92.1817C417.364 96.5949 410.969 98.1349 405.5 97.9805C399.925 97.8231 395.272 95.904 391.539 93.4054C387.802 90.9048 384.99 87.827 383.112 85.369C382.173 84.1411 381.469 83.0708 381.002 82.3093Z" stroke="#ACCD6A" stroke-opacity="0.5"/>
<path d="M277.644 102.481C277.847 102.449 278.022 102.425 278.166 102.406C278.188 102.545 278.214 102.714 278.241 102.91C278.324 103.526 278.417 104.412 278.452 105.486C278.523 107.636 278.362 110.526 277.446 113.503C276.531 116.476 274.864 119.531 271.923 122.035C269.061 124.472 264.961 126.411 259.102 127.223C258.298 121.544 259.071 117.18 260.667 113.824C262.309 110.37 264.839 107.945 267.498 106.243C270.16 104.539 272.943 103.565 275.066 103.018C276.126 102.745 277.019 102.579 277.644 102.481Z" stroke="#ACCD6A" stroke-opacity="0.5"/>
<path d="M318.749 25.5004C318.693 25.6264 318.641 25.7374 318.596 25.8325C318.497 25.7885 318.381 25.736 318.25 25.675C317.763 25.4467 317.073 25.0988 316.272 24.623C314.666 23.6701 312.625 22.2122 310.861 20.1875C309.099 18.1654 307.618 15.5854 307.111 12.3789C306.621 9.27736 307.036 5.55015 309.045 1.12429C313.604 3.17863 316.464 5.72735 318.204 8.38178C320 11.1224 320.624 14.0106 320.655 16.6559C320.685 19.3051 320.12 21.7044 319.543 23.4461C319.255 24.3156 318.966 25.0175 318.749 25.5004Z" stroke="#ACCD6A" stroke-opacity="0.5"/>
<path d="M39.1852 193.066C38.986 193.128 38.8143 193.178 38.674 193.218C38.6309 193.083 38.58 192.918 38.524 192.725C38.35 192.127 38.1269 191.261 37.9332 190.199C37.5453 188.074 37.2779 185.182 37.7484 182.09C38.2184 179.003 39.423 175.723 41.9761 172.803C44.4611 169.961 48.2492 167.43 53.9536 165.76C55.5962 171.289 55.4741 175.74 54.3846 179.31C53.2639 182.983 51.1073 185.763 48.7154 187.844C46.3212 189.927 43.6984 191.301 41.6684 192.156C40.6547 192.582 39.7923 192.878 39.1852 193.066Z" stroke="#ACCD6A" stroke-opacity="0.5"/>
<path d="M88.3792 219.751C88.2127 219.877 88.0684 219.983 87.9499 220.067C87.8626 219.955 87.7573 219.816 87.6374 219.652C87.2677 219.148 86.7598 218.409 86.2124 217.476C85.1162 215.608 83.8692 212.978 83.2481 209.912C82.6277 206.85 82.6325 203.36 84.0287 199.754C85.3877 196.244 88.0793 192.586 92.8699 189.091C96.3193 193.733 97.7367 197.959 97.9406 201.684C98.1502 205.514 97.0787 208.856 95.5452 211.62C94.0102 214.387 92.0166 216.566 90.4014 218.056C89.5948 218.8 88.8854 219.369 88.3792 219.751Z" stroke="#ACCD6A" stroke-opacity="0.5"/>
<path d="M1.65013 197.271C1.44234 197.268 1.26415 197.262 1.11874 197.256C1.12039 197.115 1.12421 196.943 1.13191 196.744C1.15596 196.121 1.21782 195.228 1.36924 194.159C1.67248 192.019 2.3328 189.186 3.75647 186.396C5.17835 183.608 7.35855 180.867 10.7054 178.889C13.9627 176.964 18.3583 175.741 24.3003 175.934C24.1157 181.691 22.595 185.879 20.4333 188.931C18.2092 192.07 15.2823 194.04 12.3529 195.273C9.42066 196.507 6.49488 196.997 4.29666 197.178C3.19894 197.268 2.28635 197.281 1.65013 197.271Z" stroke="#ACCD6A" stroke-opacity="0.5"/>
<path d="M174.114 51.229C174.185 51.3445 174.246 51.4478 174.299 51.5376C174.207 51.5925 174.099 51.6554 173.977 51.7248C173.508 51.9912 172.825 52.3538 171.971 52.7344C170.26 53.4966 167.881 54.3249 165.19 54.6043C162.502 54.8834 159.511 54.6143 156.559 53.1934C153.704 51.8196 150.851 49.3528 148.332 45.1922C152.633 42.6558 156.379 41.7828 159.575 41.8831C162.878 41.9866 165.635 43.1301 167.851 44.6185C170.07 46.1089 171.742 47.9419 172.86 49.4075C173.418 50.1392 173.836 50.7765 174.114 51.229Z" stroke="#ACCD6A" stroke-opacity="0.5"/>
<path d="M156.68 63.7368C156.819 63.7363 156.943 63.7374 157.049 63.7392C157.05 63.8458 157.049 63.9698 157.046 64.1099C157.037 64.6441 157 65.4102 156.892 66.3298C156.676 68.1718 156.175 70.6147 155.039 73.0406C153.904 75.4634 152.141 77.8617 149.4 79.6371C146.749 81.3547 143.151 82.5104 138.255 82.5108C138.269 77.5488 139.435 73.9184 141.159 71.257C142.939 68.5075 145.339 66.757 147.76 65.6432C150.184 64.5279 152.624 64.0546 154.463 63.8616C155.382 63.7652 156.147 63.739 156.68 63.7368Z" stroke="#ACCD6A" stroke-opacity="0.5"/>
<path d="M384.273 17.0965C384.412 17.0959 384.536 17.097 384.642 17.0988C384.642 17.2054 384.641 17.3292 384.639 17.4691C384.629 18.0033 384.592 18.7695 384.483 19.6891C384.265 21.531 383.762 23.9739 382.624 26.3999C381.487 28.8228 379.722 31.2212 376.98 32.9967C374.327 34.7142 370.728 35.8699 365.832 35.8704C365.85 30.9086 367.019 27.2783 368.745 24.6168C370.528 21.8673 372.929 20.1167 375.351 19.0029C377.776 17.8875 380.217 17.4142 382.056 17.2212C382.975 17.1248 383.74 17.0986 384.273 17.0965Z" stroke="#ACCD6A" stroke-opacity="0.5"/>
<path d="M435.434 56.7716C435.556 56.8348 435.663 56.8923 435.755 56.9427C435.706 57.0367 435.647 57.1453 435.579 57.267C435.319 57.7349 434.926 58.3954 434.398 59.1585C433.339 60.6869 431.745 62.6148 429.598 64.2338C427.454 65.8509 424.765 67.1549 421.506 67.4553C418.354 67.7457 414.63 67.1011 410.304 64.8361C412.653 60.4559 415.393 57.7857 418.171 56.2307C421.04 54.6239 423.986 54.1876 426.651 54.3245C429.32 54.4616 431.699 55.1736 433.416 55.855C434.273 56.1952 434.961 56.5264 435.434 56.7716Z" stroke="#ACCD6A" stroke-opacity="0.5"/>
<path d="M470.217 106.388C470.272 106.511 470.32 106.621 470.36 106.716C470.261 106.759 470.147 106.808 470.017 106.861C469.52 107.067 468.798 107.341 467.906 107.611C466.119 108.152 463.662 108.675 460.966 108.614C458.274 108.554 455.351 107.911 452.612 106.131C449.964 104.411 447.454 101.606 445.488 97.1627C450.08 95.2072 453.904 94.8218 457.056 95.3265C460.312 95.8479 462.89 97.3258 464.888 99.0747C466.889 100.826 468.302 102.846 469.216 104.433C469.672 105.226 470.002 105.907 470.217 106.388Z" stroke="#ACCD6A" stroke-opacity="0.5"/>
<path d="M445.357 123.566C445.344 123.323 445.337 123.118 445.333 122.954C445.496 122.944 445.701 122.935 445.944 122.927C446.629 122.907 447.613 122.907 448.796 122.991C451.166 123.158 454.322 123.66 457.49 124.988C460.653 126.316 463.822 128.465 466.24 131.93C468.597 135.309 470.263 139.971 470.485 146.41C464.135 146.643 459.413 145.311 455.894 143.198C452.285 141.029 449.907 138.017 448.339 134.951C446.77 131.881 446.016 128.765 445.655 126.41C445.475 125.235 445.394 124.252 445.357 123.566Z" stroke="#ACCD6A" stroke-opacity="0.5"/>
</svg>
